<svg xmlns="http://www.w3.org/2000/svg" xmlns:xlink="http://www.w3.org/1999/xlink" width="1920" height="6332" viewBox="0 0 1920 6332">
  <defs>
    <clipPath id="clip-blog_posting">
      <rect width="1920" height="6332"/>
    </clipPath>
  </defs>
  <g id="blog_posting" data-name="blog posting" clip-path="url(#clip-blog_posting)">
    <rect width="1920" height="6332" fill="#fff"/>
    <g id="Polygon_1" data-name="Polygon 1" transform="translate(370 126)" fill="#fff">
      <path d="M8,0l.32,8.493L16,13,8,9.013,0,13,7.68,8.493Z" stroke="none"/>
      <path d="M 7.999999523162842 0 L 8.319999694824219 8.493330001831055 L 16 13 L 7.999999523162842 9.013330459594727 L -9.5367431640625e-07 13 L 7.679999351501465 8.493330001831055 L 7.999999523162842 0 Z" stroke="none" fill="#fff"/>
    </g>
    <g id="Polygon_5" data-name="Polygon 5" transform="translate(1348 132)" fill="#fff">
      <path d="M8,0l.32,8.493L16,13,8,9.013,0,13,7.68,8.493Z" stroke="none"/>
      <path d="M 7.999999523162842 0 L 8.319999694824219 8.493330001831055 L 16 13 L 7.999999523162842 9.013330459594727 L -9.5367431640625e-07 13 L 7.679999351501465 8.493330001831055 L 7.999999523162842 0 Z" stroke="none" fill="#fff"/>
    </g>
    <g id="Polygon_9" data-name="Polygon 9" transform="translate(263 440)" fill="#fff">
      <path d="M8,0l.32,8.493L16,13,8,9.013,0,13,7.68,8.493Z" stroke="none"/>
      <path d="M 7.999999523162842 0 L 8.319999694824219 8.493330001831055 L 16 13 L 7.999999523162842 9.013330459594727 L -9.5367431640625e-07 13 L 7.679999351501465 8.493330001831055 L 7.999999523162842 0 Z" stroke="none" fill="#fff"/>
    </g>
    <g id="Polygon_10" data-name="Polygon 10" transform="translate(680 156)" fill="#fff">
      <path d="M8,0l.32,8.493L16,13,8,9.013,0,13,7.68,8.493Z" stroke="none"/>
      <path d="M 7.999999523162842 0 L 8.319999694824219 8.493330001831055 L 16 13 L 7.999999523162842 9.013330459594727 L -9.5367431640625e-07 13 L 7.679999351501465 8.493330001831055 L 7.999999523162842 0 Z" stroke="none" fill="#fff"/>
    </g>
    <g id="Polygon_11" data-name="Polygon 11" transform="translate(1079 187)" fill="#fff">
      <path d="M8,0l.32,8.493L16,13,8,9.013,0,13,7.68,8.493Z" stroke="none"/>
      <path d="M 7.999999523162842 0 L 8.319999694824219 8.493330001831055 L 16 13 L 7.999999523162842 9.013330459594727 L -9.5367431640625e-07 13 L 7.679999351501465 8.493330001831055 L 7.999999523162842 0 Z" stroke="none" fill="#fff"/>
    </g>
    <text id="Write_a_blog" data-name="Write a blog" transform="translate(343 2840)" fill="#fff" font-size="16" font-family="Nunito-Regular, Nunito" letter-spacing="0.002em"><tspan x="0" y="0">Write a blog</tspan></text>
    <g id="Polygon_14" data-name="Polygon 14" transform="translate(368 2510)" fill="#fff">
      <path d="M8,0l.32,8.493L16,13,8,9.013,0,13,7.68,8.493Z" stroke="none"/>
      <path d="M 7.999999523162842 0 L 8.319999694824219 8.493330001831055 L 16 13 L 7.999999523162842 9.013330459594727 L -9.5367431640625e-07 13 L 7.679999351501465 8.493330001831055 L 7.999999523162842 0 Z" stroke="none" fill="#fff"/>
    </g>
    <g id="Polygon_31" data-name="Polygon 31" transform="translate(317 3052)" fill="#fff">
      <path d="M8,0l.32,8.493L16,13,8,9.013,0,13,7.68,8.493Z" stroke="none"/>
      <path d="M 7.999999523162842 0 L 8.319999694824219 8.493330001831055 L 16 13 L 7.999999523162842 9.013330459594727 L -9.5367431640625e-07 13 L 7.679999351501465 8.493330001831055 L 7.999999523162842 0 Z" stroke="none" fill="#fff"/>
    </g>
    <g id="layered-waves-haikei_4_" data-name="layered-waves-haikei (4)" transform="translate(-2.5 5845)">
      <path id="Path_255" data-name="Path 255" d="M0,389.52l45.867-1.4c45.867-1.284,137.6-4.087,228.907-.35,91.52,3.736,182.4,13.777,273.92,20.783,91.307,7.005,183.04,10.975,274.347,6.889,91.52-4.086,182.4-16.229,273.92-14.828,91.307,1.4,183.04,16.112,274.347,21.25,91.52,5.021,182.4.35,273.92-4.67,91.307-5.137,183.04-10.508,228.907-13.31L1920,401.2v235.85H0Z" transform="translate(0 -385.898)" fill="#009473"/>
      <path id="Path_256" data-name="Path 256" d="M0,427.949,45.867,430.1c45.867,2.27,137.6,6.572,228.907,10.156,91.52,3.584,182.4,6.452,273.92,12.426,91.307,5.974,183.04,15.055,274.347,8.125,91.52-6.93,182.4-30.11,273.92-31.3,91.307-1.195,183.04,19.6,274.347,16.369,91.52-3.226,182.4-30.229,273.92-29.871,91.307.358,183.04,28.318,228.907,42.178L1920,472.158V637.045H0Z" transform="translate(0 -385.898)" fill="#007272"/>
      <path id="Path_257" data-name="Path 257" d="M0,521.547l45.867-.373c45.867-.5,137.6-1.242,228.907-15.151,91.52-13.909,182.4-40.735,273.92-45.951C640,454.856,731.733,471.5,823.04,480.564c91.52,9.066,182.4,10.8,273.92,12.171,91.307,1.49,183.04,2.732,274.347-.124,91.52-2.981,182.4-9.935,273.92-17.387,91.307-7.451,183.04-15.4,228.907-19.25L1920,452V637.045H0Z" transform="translate(0 -385.898)" fill="#00505e"/>
      <path id="Path_258" data-name="Path 258" d="M0,534l45.867-7c45.867-7,137.6-21,228.907-19.7,91.52,1.4,182.4,18,273.92,22,91.307,4,183.04-4.6,274.347-6.1,91.52-1.5,182.4,4.1,273.92-1.2,91.307-5.3,183.04-21.7,274.347-24.7,91.52-3,182.4,7.4,273.92,9,91.307,1.7,183.04-5.3,228.907-8.8L1920,494V601H0Z" transform="translate(0 -349.853)" fill="#033040"/>
      <path id="Path_259" data-name="Path 259" d="M0,640.579l45.867-15.966c45.867-15.626,137.6-47.558,228.907-64.882,91.52-17.664,182.4-21.061,273.92-22.76,91.307-1.7,183.04-1.7,274.347,19.363,91.52,20.721,182.4,62.844,273.92,68.279,91.307,5.775,183.04-24.8,274.347-40.764,91.52-15.626,182.4-16.985,273.92-6.115,91.307,10.87,183.04,33.29,228.907,44.84L1920,633.785V756.077H0Z" transform="translate(0 -395.68)" fill="#001220"/>
    </g>
    <rect id="Rectangle_39" data-name="Rectangle 39" width="1920" height="491" transform="translate(-2.5 6172)" fill="#001220"/>
    <g id="Group_23" data-name="Group 23" transform="translate(1912.542 6263.246)">
      <path id="Icon_awesome-copyright" data-name="Icon awesome-copyright" d="M18,.563A17.438,17.438,0,1,0,35.438,18,17.437,17.437,0,0,0,18,.563Zm8.236,24.381a10.5,10.5,0,0,1-7.724,3.215A9.9,9.9,0,0,1,8.353,17.924,9.9,9.9,0,0,1,18.461,7.841a10.126,10.126,0,0,1,7.272,2.735A.844.844,0,0,1,25.82,11.6l-1.574,2.437a.844.844,0,0,1-1.282.161,7.153,7.153,0,0,0-4.351-1.679,5.032,5.032,0,0,0-5.2,5.35c0,2.785,1.794,5.6,5.223,5.6a6.894,6.894,0,0,0,4.609-2.013.844.844,0,0,1,1.3.074L26.275,23.9a.844.844,0,0,1-.039,1.045Z" transform="translate(-0.563 0.438)" fill="#ffe3fe"/>
      <text id="Amit_samui_for_robotic_society" data-name="Amit samui for robotic society" transform="translate(47 29)" fill="#ffe3fe" font-size="29" font-family="MicrosoftJhengHeiUIBold, Microsoft JhengHei UI" letter-spacing="0.008em"><tspan x="0" y="0">Amit samui for robotic society</tspan></text>
    </g>
    <g id="Group_24" data-name="Group 24" transform="translate(658.292 6126)">
      <text id="SERVICES" transform="translate(-0.292 24)" fill="#fff" font-size="24" font-family="Nunito-Regular, Nunito"><tspan x="0" y="0">SERVICES</tspan></text>
      <text id="Contact_Us_Ordering_Payment_Shipping_Returns_FAQ_Sizing_Guide" data-name="Contact Us
Ordering &amp; Payment
Shipping
Returns
FAQ
Sizing Guide" transform="translate(145.708 16)" fill="#fff" font-size="16" font-family="Nunito-Regular, Nunito"><tspan x="0" y="0">Contact Us</tspan><tspan x="0" y="22">Ordering &amp; Payment</tspan><tspan x="0" y="44">Shipping</tspan><tspan x="0" y="66">Returns</tspan><tspan x="0" y="88">FAQ</tspan><tspan x="0" y="110">Sizing Guide</tspan></text>
    </g>
    <g id="Group_26" data-name="Group 26" transform="translate(1014.184 6134)">
      <text id="INFORMATION" transform="translate(0.316 24)" fill="#fff" font-size="24" font-family="Nunito-Regular, Nunito"><tspan x="0" y="0">INFORMATION</tspan></text>
      <text id="About_Adobe_XD_Kit_Work_With_US_Privacy_Policy_Terms_Conditions_Press_Enquiries" data-name="About Adobe XD Kit
Work With US
Privacy Policy
Terms &amp; Conditions
Press Enquiries" transform="translate(197.316 16)" fill="#fff" font-size="16" font-family="Nunito-Regular, Nunito"><tspan x="0" y="0">About Adobe XD Kit</tspan><tspan x="0" y="26">Work With US</tspan><tspan x="0" y="52">Privacy Policy</tspan><tspan x="0" y="78">Terms &amp; Conditions</tspan><tspan x="0" y="104">Press Enquiries</tspan></text>
    </g>
    <g id="Group_27" data-name="Group 27" transform="translate(-1.5 -425)">
      <text id="_AdobeXD_Kit" data-name="© AdobeXD Kit" transform="translate(1606 6670)" fill="#fff" font-size="24" font-family="ArialMT, Arial"><tspan x="-160.441" y="0">© AdobeXD Kit</tspan></text>
      <g id="social" transform="translate(1470.344 6559)">
        <g id="Component_11_1" data-name="Component 11 – 1" transform="translate(116.934 0)">
          <rect id="Rectangle_392" data-name="Rectangle 392" width="28" height="27" transform="translate(-0.278 0.865)" fill="none"/>
          <path id="Path_1" data-name="Path 1" d="M89.354,27.6V15.028h4.294l.613-4.907H89.354V7.054c0-1.38.46-2.454,2.454-2.454h2.607V.153C93.8.153,92.268,0,90.581,0c-3.68,0-6.287,2.3-6.287,6.44v3.68H80v4.907h4.294V27.6Z" transform="translate(-72.725)" fill="#fff" fill-rule="evenodd"/>
        </g>
        <g id="Component_12_1" data-name="Component 12 – 1" transform="translate(62.104 1.336)">
          <rect id="Rectangle_393" data-name="Rectangle 393" width="26" height="27" transform="translate(0.551 -0.472)" fill="none"/>
          <path id="Path_2" data-name="Path 2" d="M46.741,24.388c10.427,0,16.1-8.587,16.1-16.1V7.52A12.465,12.465,0,0,0,65.6,4.607a12.73,12.73,0,0,1-3.22.92A5.966,5.966,0,0,0,64.835,2.46a14.065,14.065,0,0,1-3.527,1.38A5.476,5.476,0,0,0,57.168,2a5.761,5.761,0,0,0-5.674,5.674A2.99,2.99,0,0,0,51.648,8.9,15.854,15.854,0,0,1,39.993,2.92a5.873,5.873,0,0,0-.767,2.914,6.093,6.093,0,0,0,2.454,4.754,5.169,5.169,0,0,1-2.607-.767h0a5.6,5.6,0,0,0,4.6,5.52,4.727,4.727,0,0,1-1.533.153,2.61,2.61,0,0,1-1.073-.153,5.809,5.809,0,0,0,5.367,3.987,11.578,11.578,0,0,1-7.054,2.454A4.245,4.245,0,0,1,38,21.628a14.474,14.474,0,0,0,8.741,2.76" transform="translate(-38 0.114)" fill="#fff" fill-rule="evenodd"/>
        </g>
        <g id="Component_13_1" data-name="Component 13 – 1" transform="translate(0 0)">
          <path id="Path_3" data-name="Path 3" d="M13.8,2.454a42.317,42.317,0,0,1,5.52.153,7.112,7.112,0,0,1,2.607.46,5.385,5.385,0,0,1,2.607,2.607A7.112,7.112,0,0,1,25,8.281c0,1.38.153,1.84.153,5.52A42.317,42.317,0,0,1,25,19.321a7.112,7.112,0,0,1-.46,2.607,5.385,5.385,0,0,1-2.607,2.607,7.112,7.112,0,0,1-2.607.46c-1.38,0-1.84.153-5.52.153A42.317,42.317,0,0,1,8.281,25a7.112,7.112,0,0,1-2.607-.46,5.385,5.385,0,0,1-2.607-2.607,7.112,7.112,0,0,1-.46-2.607c0-1.38-.153-1.84-.153-5.52a42.317,42.317,0,0,1,.153-5.52,7.112,7.112,0,0,1,.46-2.607A5.507,5.507,0,0,1,4.14,4.14,2.593,2.593,0,0,1,5.674,3.067a7.112,7.112,0,0,1,2.607-.46,42.317,42.317,0,0,1,5.52-.153M13.8,0A45.309,45.309,0,0,0,8.127.153,9.467,9.467,0,0,0,4.754.767,6,6,0,0,0,2.3,2.3,6,6,0,0,0,.767,4.754,6.987,6.987,0,0,0,.153,8.127,45.309,45.309,0,0,0,0,13.8a45.309,45.309,0,0,0,.153,5.674,9.467,9.467,0,0,0,.613,3.374A6,6,0,0,0,2.3,25.3a6,6,0,0,0,2.454,1.533,9.467,9.467,0,0,0,3.374.613A45.309,45.309,0,0,0,13.8,27.6a45.309,45.309,0,0,0,5.674-.153,9.467,9.467,0,0,0,3.374-.613,6.434,6.434,0,0,0,3.987-3.987,9.467,9.467,0,0,0,.613-3.374c0-1.533.153-1.993.153-5.674a45.309,45.309,0,0,0-.153-5.674,9.467,9.467,0,0,0-.613-3.374A6,6,0,0,0,25.3,2.3,6,6,0,0,0,22.848.767,9.467,9.467,0,0,0,19.475.153,45.309,45.309,0,0,0,13.8,0m0,6.747A6.94,6.94,0,0,0,6.747,13.8,7.054,7.054,0,1,0,13.8,6.747m0,11.654a4.518,4.518,0,0,1-4.6-4.6,4.518,4.518,0,0,1,4.6-4.6,4.518,4.518,0,0,1,4.6,4.6,4.518,4.518,0,0,1-4.6,4.6M21.161,4.754A1.687,1.687,0,1,0,22.848,6.44a1.7,1.7,0,0,0-1.687-1.687" fill="#fff" fill-rule="evenodd"/>
        </g>
      </g>
    </g>
    <g id="Group_28" data-name="Group 28" transform="translate(-739 6731) rotate(-90)">
      <circle id="Ellipse_8" data-name="Ellipse 8" cx="33" cy="33" r="33" transform="translate(914 1666)" fill="#001220"/>
      <path id="Path_47" data-name="Path 47" d="M944.017,1690.128l18.922,13.615-18.922,13.372" transform="translate(-4.113 -4.421)" fill="none" stroke="#fff" stroke-linecap="round" stroke-width="5"/>
    </g>
    <g id="Group_2" data-name="Group 2" transform="translate(0)">
      <g id="layered-waves-haikei_2_" data-name="layered-waves-haikei (2)" transform="translate(0)">
        <rect id="Rectangle_2" data-name="Rectangle 2" width="1920" height="679" fill="#001220"/>
        <path id="Path_11" data-name="Path 11" d="M0,443l45.867-8.2c45.867-8.1,137.6-24.5,228.907-39.3,91.52-14.8,182.4-28.2,273.92-20.5,91.307,7.7,183.04,36.3,274.347,43.2,91.52,6.8,182.4-8.2,273.92-12.2,91.307-4,183.04,3,274.347,10.3,91.52,7.4,182.4,15,273.92,19.7,91.307,4.7,183.04,6.3,228.907,7.2L1920,444V601H0Z" transform="translate(0 79.245)" fill="#4facf7"/>
        <path id="Path_12" data-name="Path 12" d="M0,476l45.867-4.5c45.867-4.5,137.6-13.5,228.907-25.3,91.52-11.9,182.4-26.5,273.92-32,91.307-5.5,183.04-1.9,274.347,9.5,91.52,11.3,182.4,30.3,273.92,37.3,91.307,7,183.04,2,274.347,3,91.52,1,182.4,8,273.92,4,91.307-4,183.04-19,228.907-26.5L1920,434V601H0Z" transform="translate(0 79.245)" fill="#0babdf"/>
        <path id="Path_13" data-name="Path 13" d="M0,471l45.867,2.2c45.867,2.1,137.6,6.5,228.907,2.3,91.52-4.2,182.4-16.8,273.92-17.8,91.307-1,183.04,9.6,274.347,8.5,91.52-1.2,182.4-14.2,273.92-13.5,91.307.6,183.04,15,274.347,19.5,91.52,4.5,182.4-.9,273.92,1.5,91.307,2.3,183.04,12.3,228.907,17.3L1920,496V601H0Z" transform="translate(0 79.245)" fill="#00a6c1"/>
        <path id="Path_14" data-name="Path 14" d="M0,523.187l45.867-.671c45.867-.671,137.6-2.014,228.907-5.506,91.52-3.424,182.4-9.064,273.92-8.057,91.307,1.007,183.04,8.661,274.347,8.527,91.52-.134,182.4-7.923,273.92-12.757,91.307-4.834,183.04-6.58,274.347-5.237,91.52,1.343,182.4,5.774,273.92,7.453,91.307,1.679,183.04.6,228.907,0L1920,506.4v61.1H0Z" transform="translate(0 79.245)" fill="#009f9e"/>
        <path id="Path_15" data-name="Path 15" d="M0,543.121l45.867,3.648c45.867,3.534,137.6,10.831,228.907,7.524,91.52-3.192,182.4-16.873,273.92-18.811,91.307-1.824,183.04,7.981,274.347,15.847,91.52,7.753,182.4,13.453,273.92,16.531,91.307,2.964,183.04,3.42,274.347,2.964,91.52-.342,182.4-1.482,273.92-7.752,91.307-6.27,183.04-17.671,228.907-23.372L1920,534v76.385H0Z" transform="translate(0 51.579)" fill="#009473"/>
      </g>
      <g id="layered-waves-haikei_3_" data-name="layered-waves-haikei (3)" transform="translate(1920 849.182) rotate(180)">
        <path id="Path_16" data-name="Path 16" d="M0,58.271l45.867-6.8c45.867-6.719,137.6-20.324,228.907-32.6,91.52-12.277,182.4-23.393,273.92-17.006C640,8.25,731.733,31.975,823.04,37.7c91.52,5.641,182.4-6.8,273.92-10.12,91.307-3.318,183.04,2.489,274.347,8.544,91.52,6.139,182.4,12.443,273.92,16.342,91.307,3.9,183.04,5.226,228.907,5.973L1920,59.1V189.338H0Z" fill="#4facf7"/>
        <path id="Path_17" data-name="Path 17" d="M0,50.331l45.867-3.564c45.867-3.564,137.6-10.692,228.907-20.038,91.52-9.425,182.4-20.989,273.92-25.345C640-2.973,731.733,3.565,823.04,12.594c91.52,8.95,182.4,20.311,273.92,25.856,91.307,5.544,183.04,1.584,274.347,2.376,91.52.792,182.4,6.336,273.92,3.168,91.307-3.168,183.04-15.049,228.907-20.989L1920,17.065v132.27H0Z" transform="translate(0 40.003)" fill="#0babdf"/>
        <path id="Path_18" data-name="Path 18" d="M0,15.065l45.867,1.808c45.867,1.726,137.6,5.343,228.907,1.891,91.52-3.452,182.4-13.81,273.92-14.632C640,3.31,731.733,12.024,823.04,11.119c91.52-.986,182.4-11.672,273.92-11.1,91.307.493,183.04,12.33,274.347,16.029,91.52,3.7,182.4-.74,273.92,1.233,91.307,1.891,183.04,10.111,228.907,14.221L1920,35.615v86.311H0Z" transform="translate(0 67.413)" fill="#00a6c1"/>
        <path id="Path_19" data-name="Path 19" d="M0,35.952l45.867-1c45.867-1,137.6-3,228.907-8.2,91.52-5.1,182.4-13.5,273.92-12,91.307,1.5,183.04,12.9,274.347,12.7,91.52-.2,182.4-11.8,273.92-19a2732.059,2732.059,0,0,1,274.347-7.8c91.52,2,182.4,8.6,273.92,11.1,91.307,2.5,183.04.9,228.907,0l45.867-.8v91H0Z" transform="translate(0 87.386)" fill="#009f9e"/>
        <path id="Path_20" data-name="Path 20" d="M0,8l45.867,3.2c45.867,3.1,137.6,9.5,228.907,6.6C366.293,15,457.173,3,548.693,1.3,640-.3,731.733,8.3,823.04,15.2c91.52,6.8,182.4,11.8,273.92,14.5,91.307,2.6,183.04,3,274.347,2.6,91.52-.3,182.4-1.3,273.92-6.8C1736.533,20,1828.266,10,1874.133,5L1920,0V67H0Z" transform="translate(0 122.338)" fill="#009473"/>
      </g>
      <text id="SAVE_ENERGY_SAVE_GENERATIONS_" data-name="SAVE ENERGY ! SAVE GENERATIONS!!" transform="translate(488.5 5699)" fill="#001220" font-size="51" font-family="Nunito-Bold, Nunito" font-weight="700" letter-spacing="0.014em"><tspan x="0" y="0">SAVE ENERGY ! SAVE GENERATIONS!!</tspan></text>
    </g>
    <path id="Icon_ionic-ios-leaf" data-name="Icon ionic-ios-leaf" d="M42.178,28.886c-4.952-.62-5.325-.907-5.325-.907,1.491-5.734-2.141-11.709-7.294-15.157C22.695,8.235,12.265,11.567,4.139,4.593c-1.893-1.627-.793,18.249,9.378,25.781,7.437,5.5,16.194,3.812,18.594,2.914a10.129,10.129,0,0,0,3.7-2.627,33.828,33.828,0,0,0,5.927,1.1C43.134,31.9,43.841,29.1,42.178,28.886Zm-8.776.573c-7.428-1.805-13.89-6.277-18.077-9.779-.344-.287.153-.713.526-.465a62.807,62.807,0,0,0,18.479,8.361A2.628,2.628,0,0,1,33.4,29.459Z" transform="translate(273.237 13.063)" fill="#d2deff"/>
    <text id="REFILL" transform="translate(322.612 43.439)" fill="#d2deff" font-size="24" font-family="Nunito-Bold, Nunito" font-weight="700"><tspan x="0" y="0">REFILL</tspan></text>
    <text id="HOME" transform="translate(1167.613 42)" fill="#d2deff" font-size="16" font-family="Nunito-Medium, Nunito" font-weight="500" letter-spacing="0.033em"><tspan x="0" y="0">HOME</tspan></text>
    <text id="BLOG" transform="translate(1293.613 42)" fill="#d2deff" font-size="16" font-family="Nunito-Medium, Nunito" font-weight="500" letter-spacing="0.033em"><tspan x="0" y="0">BLOG</tspan></text>
    <text id="DONATE" transform="translate(1409.613 42)" fill="#d2deff" font-size="16" font-family="Nunito-Medium, Nunito" font-weight="500" letter-spacing="0.033em"><tspan x="0" y="0">DONATE</tspan></text>
    <text id="CONTACT_US" data-name="CONTACT US" transform="translate(1536.613 42)" fill="#d2deff" font-size="16" font-family="Nunito-Medium, Nunito" font-weight="500" letter-spacing="0.033em"><tspan x="0" y="0">CONTACT US</tspan></text>
    <g id="Polygon_2" data-name="Polygon 2" transform="translate(856.613 85)" fill="#fff">
      <path d="M8,0l.32,8.493L16,13,8,9.013,0,13,7.68,8.493Z" stroke="none"/>
      <path d="M 7.999999523162842 0 L 8.319999694824219 8.493330001831055 L 16 13 L 7.999999523162842 9.013330459594727 L -9.5367431640625e-07 13 L 7.679999351501465 8.493330001831055 L 7.999999523162842 0 Z" stroke="none" fill="#fff"/>
    </g>
    <g id="Polygon_3" data-name="Polygon 3" transform="translate(472.613 43)" fill="#fff">
      <path d="M8,0l.32,8.493L16,13,8,9.013,0,13,7.68,8.493Z" stroke="none"/>
      <path d="M 7.999999523162842 0 L 8.319999694824219 8.493330001831055 L 16 13 L 7.999999523162842 9.013330459594727 L -9.5367431640625e-07 13 L 7.679999351501465 8.493330001831055 L 7.999999523162842 0 Z" stroke="none" fill="#fff"/>
    </g>
    <g id="Polygon_12" data-name="Polygon 12" transform="translate(1182.613 88)" fill="#fff">
      <path d="M8,0l.32,8.493L16,13,8,9.013,0,13,7.68,8.493Z" stroke="none"/>
      <path d="M 7.999999523162842 0 L 8.319999694824219 8.493330001831055 L 16 13 L 7.999999523162842 9.013330459594727 L -9.5367431640625e-07 13 L 7.679999351501465 8.493330001831055 L 7.999999523162842 0 Z" stroke="none" fill="#fff"/>
    </g>
    <text id="Write_a_blog-2" data-name="Write a blog" transform="translate(798 252)" fill="#fff" font-size="51" font-family="Nunito-Bold, Nunito" font-weight="700" letter-spacing="0.014em"><tspan x="0" y="0">Write a blog</tspan></text>
    <ellipse id="Ellipse_9" data-name="Ellipse 9" cx="8.5" cy="9.5" rx="8.5" ry="9.5" transform="translate(939 288)" fill="#fff"/>
    <g id="Rectangle_23" data-name="Rectangle 23" transform="translate(930 277)" fill="none" stroke="#fff" stroke-width="5">
      <rect width="35" height="60" rx="17.5" stroke="none"/>
      <rect x="2.5" y="2.5" width="30" height="55" rx="15" fill="none"/>
    </g>
    <text id="click_here_to_directly_write_a_blog" data-name="click here to directly write a blog" transform="translate(793 370)" fill="#fff" font-size="20" font-family="Nunito-Bold, Nunito" font-weight="700" letter-spacing="0.014em"><tspan x="0" y="0">click here to directly write a blog</tspan></text>
    <g id="Polygon_33" data-name="Polygon 33" transform="translate(571.613 195)" fill="#fff">
      <path d="M8,0l.32,8.493L16,13,8,9.013,0,13,7.68,8.493Z" stroke="none"/>
      <path d="M 7.999999523162842 0 L 8.319999694824219 8.493330001831055 L 16 13 L 7.999999523162842 9.013330459594727 L -9.5367431640625e-07 13 L 7.679999351501465 8.493330001831055 L 7.999999523162842 0 Z" stroke="none" fill="#fff"/>
    </g>
    <g id="Polygon_34" data-name="Polygon 34" transform="translate(631.613 314)" fill="#fff">
      <path d="M8,0l.32,8.493L16,13,8,9.013,0,13,7.68,8.493Z" stroke="none"/>
      <path d="M 7.999999523162842 0 L 8.319999694824219 8.493330001831055 L 16 13 L 7.999999523162842 9.013330459594727 L -9.5367431640625e-07 13 L 7.679999351501465 8.493330001831055 L 7.999999523162842 0 Z" stroke="none" fill="#fff"/>
    </g>
    <g id="Polygon_35" data-name="Polygon 35" transform="translate(485.613 316)" fill="#fff">
      <path d="M8,0l.32,8.493L16,13,8,9.013,0,13,7.68,8.493Z" stroke="none"/>
      <path d="M 7.999999523162842 0 L 8.319999694824219 8.493330001831055 L 16 13 L 7.999999523162842 9.013330459594727 L -9.5367431640625e-07 13 L 7.679999351501465 8.493330001831055 L 7.999999523162842 0 Z" stroke="none" fill="#fff"/>
    </g>
    <g id="Polygon_36" data-name="Polygon 36" transform="translate(483.613 523)" fill="#fff">
      <path d="M8,0l.32,8.493L16,13,8,9.013,0,13,7.68,8.493Z" stroke="none"/>
      <path d="M 7.999999523162842 0 L 8.319999694824219 8.493330001831055 L 16 13 L 7.999999523162842 9.013330459594727 L -9.5367431640625e-07 13 L 7.679999351501465 8.493330001831055 L 7.999999523162842 0 Z" stroke="none" fill="#fff"/>
    </g>
    <g id="Polygon_37" data-name="Polygon 37" transform="translate(803.613 446)" fill="#fff">
      <path d="M8,0l.32,8.493L16,13,8,9.013,0,13,7.68,8.493Z" stroke="none"/>
      <path d="M 7.999999523162842 0 L 8.319999694824219 8.493330001831055 L 16 13 L 7.999999523162842 9.013330459594727 L -9.5367431640625e-07 13 L 7.679999351501465 8.493330001831055 L 7.999999523162842 0 Z" stroke="none" fill="#fff"/>
    </g>
    <g id="Polygon_38" data-name="Polygon 38" transform="translate(1083.613 465)" fill="#fff">
      <path d="M8,0l.32,8.493L16,13,8,9.013,0,13,7.68,8.493Z" stroke="none"/>
      <path d="M 7.999999523162842 0 L 8.319999694824219 8.493330001831055 L 16 13 L 7.999999523162842 9.013330459594727 L -9.5367431640625e-07 13 L 7.679999351501465 8.493330001831055 L 7.999999523162842 0 Z" stroke="none" fill="#fff"/>
    </g>
    <g id="Polygon_39" data-name="Polygon 39" transform="translate(1226.613 350)" fill="#fff">
      <path d="M8,0l.32,8.493L16,13,8,9.013,0,13,7.68,8.493Z" stroke="none"/>
      <path d="M 7.999999523162842 0 L 8.319999694824219 8.493330001831055 L 16 13 L 7.999999523162842 9.013330459594727 L -9.5367431640625e-07 13 L 7.679999351501465 8.493330001831055 L 7.999999523162842 0 Z" stroke="none" fill="#fff"/>
    </g>
    <g id="Polygon_40" data-name="Polygon 40" transform="translate(1353.613 158)" fill="#fff">
      <path d="M8,0l.32,8.493L16,13,8,9.013,0,13,7.68,8.493Z" stroke="none"/>
      <path d="M 7.999999523162842 0 L 8.319999694824219 8.493330001831055 L 16 13 L 7.999999523162842 9.013330459594727 L -9.5367431640625e-07 13 L 7.679999351501465 8.493330001831055 L 7.999999523162842 0 Z" stroke="none" fill="#fff"/>
    </g>
    <g id="Polygon_41" data-name="Polygon 41" transform="translate(1494.613 303)" fill="#fff">
      <path d="M8,0l.32,8.493L16,13,8,9.013,0,13,7.68,8.493Z" stroke="none"/>
      <path d="M 7.999999523162842 0 L 8.319999694824219 8.493330001831055 L 16 13 L 7.999999523162842 9.013330459594727 L -9.5367431640625e-07 13 L 7.679999351501465 8.493330001831055 L 7.999999523162842 0 Z" stroke="none" fill="#fff"/>
    </g>
    <g id="Polygon_42" data-name="Polygon 42" transform="translate(1388.613 454)" fill="#fff">
      <path d="M8,0l.32,8.493L16,13,8,9.013,0,13,7.68,8.493Z" stroke="none"/>
      <path d="M 7.999999523162842 0 L 8.319999694824219 8.493330001831055 L 16 13 L 7.999999523162842 9.013330459594727 L -9.5367431640625e-07 13 L 7.679999351501465 8.493330001831055 L 7.999999523162842 0 Z" stroke="none" fill="#fff"/>
    </g>
    <g id="Polygon_43" data-name="Polygon 43" transform="translate(1560.613 524)" fill="#fff">
      <path d="M8,0l.32,8.493L16,13,8,9.013,0,13,7.68,8.493Z" stroke="none"/>
      <path d="M 7.999999523162842 0 L 8.319999694824219 8.493330001831055 L 16 13 L 7.999999523162842 9.013330459594727 L -9.5367431640625e-07 13 L 7.679999351501465 8.493330001831055 L 7.999999523162842 0 Z" stroke="none" fill="#fff"/>
    </g>
    <g id="Polygon_44" data-name="Polygon 44" transform="translate(369.613 260)" fill="#fff">
      <path d="M8,0l.32,8.493L16,13,8,9.013,0,13,7.68,8.493Z" stroke="none"/>
      <path d="M 7.999999523162842 0 L 8.319999694824219 8.493330001831055 L 16 13 L 7.999999523162842 9.013330459594727 L -9.5367431640625e-07 13 L 7.679999351501465 8.493330001831055 L 7.999999523162842 0 Z" stroke="none" fill="#fff"/>
    </g>
    <g id="Group_37" data-name="Group 37">
      <g id="Group_33" data-name="Group 33">
        <g id="Group_32" data-name="Group 32">
          <g id="Group_29" data-name="Group 29" transform="translate(263 967)">
            <path id="Rectangle_395" data-name="Rectangle 395" d="M0,0H230a0,0,0,0,1,0,0V66a7,7,0,0,1-7,7H7a7,7,0,0,1-7-7V0A0,0,0,0,1,0,0Z" transform="translate(1204 635)" fill="#001220"/>
            <g id="Rectangle_394" data-name="Rectangle 394" fill="#fff" stroke="#001220" stroke-width="2">
              <rect width="1434" height="645" rx="7" stroke="none"/>
              <rect x="1" y="1" width="1432" height="643" rx="6" fill="none"/>
            </g>
          </g>
          <g id="Group_30" data-name="Group 30" transform="translate(1520 1623.555)">
            <circle id="Ellipse_91" data-name="Ellipse 91" cx="18" cy="18" r="18" transform="translate(0 0.445)" fill="#fff"/>
            <path id="Icon_ionic-ios-arrow-up" data-name="Icon ionic-ios-arrow-up" d="M18,15.886l8.93,10.177a1.54,1.54,0,0,0,2.384,0,2.125,2.125,0,0,0,0-2.722L19.2,11.81a1.54,1.54,0,0,0-2.327-.056L6.68,23.332a2.128,2.128,0,0,0,0,2.722,1.54,1.54,0,0,0,2.384,0Z" transform="translate(0.003 -0.939)" fill="#001220"/>
          </g>
          <g id="Group_31" data-name="Group 31" transform="translate(1611 1623.555)">
            <circle id="Ellipse_92" data-name="Ellipse 92" cx="18" cy="18" r="18" transform="translate(36 36.445) rotate(180)" fill="#fff"/>
            <path id="Icon_ionic-ios-arrow-up-2" data-name="Icon ionic-ios-arrow-up" d="M11.813,4.635l8.93,10.177a1.54,1.54,0,0,0,2.384,0,2.125,2.125,0,0,0,0-2.722L13.008.56A1.54,1.54,0,0,0,10.68.5L.492,12.082a2.128,2.128,0,0,0,0,2.722,1.54,1.54,0,0,0,2.384,0Z" transform="translate(29.809 25.688) rotate(180)" fill="#001220"/>
          </g>
        </g>
        <text id="There_s_a_current_rise_in_carbon_emission_and_decrease_in_plantation_of_trees._Especially_during_this_pandemic_tree_plantation_is_not_frequent._The_awareness_towards_environmental_sources_has_decreased._Through_your_donation_we_will_ensure_the_awareness_a" data-name="There’s a current rise in carbon emission and decrease in plantation of trees. Especially during this pandemic, tree plantation is not frequent. The awareness towards environmental sources has decreased. Through your donation we will ensure the awareness a" transform="translate(315 1109)" fill="#001220" font-size="20" font-family="Nunito-Bold, Nunito" font-weight="700" letter-spacing="0.014em"><tspan x="0" y="20">There’s a current rise in carbon emission and decrease in plantation of trees. Especially during this pandemic, tree plantation is not </tspan><tspan x="0" y="55">frequent. The awareness towards environmental sources has decreased. Through your donation we will ensure the awareness among </tspan><tspan x="0" y="90">people and will fulfill our motto.</tspan><tspan x="0" y="125"></tspan><tspan x="0" y="160">There’s a current rise in carbon emission and decrease in plantation of trees. Especially during this pandemic, tree plantation is not </tspan><tspan x="0" y="195">frequent. The awareness towards environmental sources has decreased. Through your donation we will ensure the awareness among </tspan><tspan x="0" y="230">people and will fulfill our motto.There’s a current rise in carbon emission and decrease in plantation of trees. Especially during this </tspan><tspan x="0" y="265">pandemic, tree plantation is not frequent. The awareness towards environmental sources has decreased. Through your donation we will </tspan><tspan x="0" y="300">ensure the awareness among people and will fulfill our motto.There’s a current rise in carbon emission and decrease in plantation of </tspan><tspan x="0" y="335">trees. Especially during this pandemic, tree plantation is not frequent. The awareness towards environmental sources has decreased. </tspan><tspan x="0" y="370">Through your donation we will ensure the awareness among people and will fulfill our motto.There’s a current rise in carbon emission </tspan><tspan x="0" y="405">and decrease in plantation of trees. Especially during this pandemic, tree plantation is not frequent. The awareness towards </tspan><tspan x="0" y="440">environmental sources has decreased. Through your donation we will ensure the awareness among people and will fulfill our motto.</tspan></text>
        <rect id="Rectangle_396" data-name="Rectangle 396" width="1434" height="72" rx="7" transform="translate(263 967)" fill="#001220"/>
        <text id="Write_a_blog-3" data-name="Write a blog" transform="translate(316 1011)" fill="#fff" font-size="24" font-family="Nunito-Bold, Nunito" font-weight="700" letter-spacing="0.014em"><tspan x="0" y="0">Write a blog</tspan></text>
      </g>
      <g id="Group_34" data-name="Group 34" transform="translate(0 785)">
        <g id="Group_32-2" data-name="Group 32">
          <g id="Group_29-2" data-name="Group 29" transform="translate(263 967)">
            <path id="Rectangle_395-2" data-name="Rectangle 395" d="M0,0H230a0,0,0,0,1,0,0V66a7,7,0,0,1-7,7H7a7,7,0,0,1-7-7V0A0,0,0,0,1,0,0Z" transform="translate(1204 635)" fill="#001220"/>
            <g id="Rectangle_394-2" data-name="Rectangle 394" fill="#fff" stroke="#001220" stroke-width="2">
              <rect width="1434" height="645" rx="7" stroke="none"/>
              <rect x="1" y="1" width="1432" height="643" rx="6" fill="none"/>
            </g>
          </g>
          <g id="Group_30-2" data-name="Group 30" transform="translate(1520 1623.555)">
            <circle id="Ellipse_91-2" data-name="Ellipse 91" cx="18" cy="18" r="18" transform="translate(0 0.445)" fill="#fff"/>
            <path id="Icon_ionic-ios-arrow-up-3" data-name="Icon ionic-ios-arrow-up" d="M18,15.886l8.93,10.177a1.54,1.54,0,0,0,2.384,0,2.125,2.125,0,0,0,0-2.722L19.2,11.81a1.54,1.54,0,0,0-2.327-.056L6.68,23.332a2.128,2.128,0,0,0,0,2.722,1.54,1.54,0,0,0,2.384,0Z" transform="translate(0.003 -0.939)" fill="#001220"/>
          </g>
          <g id="Group_31-2" data-name="Group 31" transform="translate(1611 1623.555)">
            <circle id="Ellipse_92-2" data-name="Ellipse 92" cx="18" cy="18" r="18" transform="translate(36 36.445) rotate(180)" fill="#fff"/>
            <path id="Icon_ionic-ios-arrow-up-4" data-name="Icon ionic-ios-arrow-up" d="M11.813,4.635l8.93,10.177a1.54,1.54,0,0,0,2.384,0,2.125,2.125,0,0,0,0-2.722L13.008.56A1.54,1.54,0,0,0,10.68.5L.492,12.082a2.128,2.128,0,0,0,0,2.722,1.54,1.54,0,0,0,2.384,0Z" transform="translate(29.809 25.688) rotate(180)" fill="#001220"/>
          </g>
        </g>
        <text id="There_s_a_current_rise_in_carbon_emission_and_decrease_in_plantation_of_trees._Especially_during_this_pandemic_tree_plantation_is_not_frequent._The_awareness_towards_environmental_sources_has_decreased._Through_your_donation_we_will_ensure_the_awareness_a-2" data-name="There’s a current rise in carbon emission and decrease in plantation of trees. Especially during this pandemic, tree plantation is not frequent. The awareness towards environmental sources has decreased. Through your donation we will ensure the awareness a" transform="translate(315 1109)" fill="#001220" font-size="20" font-family="Nunito-Bold, Nunito" font-weight="700" letter-spacing="0.014em"><tspan x="0" y="20">There’s a current rise in carbon emission and decrease in plantation of trees. Especially during this pandemic, tree plantation is not </tspan><tspan x="0" y="55">frequent. The awareness towards environmental sources has decreased. Through your donation we will ensure the awareness among </tspan><tspan x="0" y="90">people and will fulfill our motto.</tspan><tspan x="0" y="125"></tspan><tspan x="0" y="160">There’s a current rise in carbon emission and decrease in plantation of trees. Especially during this pandemic, tree plantation is not </tspan><tspan x="0" y="195">frequent. The awareness towards environmental sources has decreased. Through your donation we will ensure the awareness among </tspan><tspan x="0" y="230">people and will fulfill our motto.There’s a current rise in carbon emission and decrease in plantation of trees. Especially during this </tspan><tspan x="0" y="265">pandemic, tree plantation is not frequent. The awareness towards environmental sources has decreased. Through your donation we will </tspan><tspan x="0" y="300">ensure the awareness among people and will fulfill our motto.There’s a current rise in carbon emission and decrease in plantation of </tspan><tspan x="0" y="335">trees. Especially during this pandemic, tree plantation is not frequent. The awareness towards environmental sources has decreased. </tspan><tspan x="0" y="370">Through your donation we will ensure the awareness among people and will fulfill our motto.There’s a current rise in carbon emission </tspan><tspan x="0" y="405">and decrease in plantation of trees. Especially during this pandemic, tree plantation is not frequent. The awareness towards </tspan><tspan x="0" y="440">environmental sources has decreased. Through your donation we will ensure the awareness among people and will fulfill our motto.</tspan></text>
        <rect id="Rectangle_396-2" data-name="Rectangle 396" width="1434" height="72" rx="7" transform="translate(263 967)" fill="#001220"/>
        <text id="Write_a_blog-4" data-name="Write a blog" transform="translate(316 1011)" fill="#fff" font-size="24" font-family="Nunito-Bold, Nunito" font-weight="700" letter-spacing="0.014em"><tspan x="0" y="0">Write a blog</tspan></text>
      </g>
      <g id="Group_35" data-name="Group 35" transform="translate(0 1570)">
        <g id="Group_32-3" data-name="Group 32">
          <g id="Group_29-3" data-name="Group 29" transform="translate(263 967)">
            <path id="Rectangle_395-3" data-name="Rectangle 395" d="M0,0H230a0,0,0,0,1,0,0V66a7,7,0,0,1-7,7H7a7,7,0,0,1-7-7V0A0,0,0,0,1,0,0Z" transform="translate(1204 635)" fill="#001220"/>
            <g id="Rectangle_394-3" data-name="Rectangle 394" fill="#fff" stroke="#001220" stroke-width="2">
              <rect width="1434" height="645" rx="7" stroke="none"/>
              <rect x="1" y="1" width="1432" height="643" rx="6" fill="none"/>
            </g>
          </g>
          <g id="Group_30-3" data-name="Group 30" transform="translate(1520 1623.555)">
            <circle id="Ellipse_91-3" data-name="Ellipse 91" cx="18" cy="18" r="18" transform="translate(0 0.445)" fill="#fff"/>
            <path id="Icon_ionic-ios-arrow-up-5" data-name="Icon ionic-ios-arrow-up" d="M18,15.886l8.93,10.177a1.54,1.54,0,0,0,2.384,0,2.125,2.125,0,0,0,0-2.722L19.2,11.81a1.54,1.54,0,0,0-2.327-.056L6.68,23.332a2.128,2.128,0,0,0,0,2.722,1.54,1.54,0,0,0,2.384,0Z" transform="translate(0.003 -0.939)" fill="#001220"/>
          </g>
          <g id="Group_31-3" data-name="Group 31" transform="translate(1611 1623.555)">
            <circle id="Ellipse_92-3" data-name="Ellipse 92" cx="18" cy="18" r="18" transform="translate(36 36.445) rotate(180)" fill="#fff"/>
            <path id="Icon_ionic-ios-arrow-up-6" data-name="Icon ionic-ios-arrow-up" d="M11.813,4.635l8.93,10.177a1.54,1.54,0,0,0,2.384,0,2.125,2.125,0,0,0,0-2.722L13.008.56A1.54,1.54,0,0,0,10.68.5L.492,12.082a2.128,2.128,0,0,0,0,2.722,1.54,1.54,0,0,0,2.384,0Z" transform="translate(29.809 25.688) rotate(180)" fill="#001220"/>
          </g>
        </g>
        <text id="There_s_a_current_rise_in_carbon_emission_and_decrease_in_plantation_of_trees._Especially_during_this_pandemic_tree_plantation_is_not_frequent._The_awareness_towards_environmental_sources_has_decreased._Through_your_donation_we_will_ensure_the_awareness_a-3" data-name="There’s a current rise in carbon emission and decrease in plantation of trees. Especially during this pandemic, tree plantation is not frequent. The awareness towards environmental sources has decreased. Through your donation we will ensure the awareness a" transform="translate(315 1109)" fill="#001220" font-size="20" font-family="Nunito-Bold, Nunito" font-weight="700" letter-spacing="0.014em"><tspan x="0" y="20">There’s a current rise in carbon emission and decrease in plantation of trees. Especially during this pandemic, tree plantation is not </tspan><tspan x="0" y="55">frequent. The awareness towards environmental sources has decreased. Through your donation we will ensure the awareness among </tspan><tspan x="0" y="90">people and will fulfill our motto.</tspan><tspan x="0" y="125"></tspan><tspan x="0" y="160">There’s a current rise in carbon emission and decrease in plantation of trees. Especially during this pandemic, tree plantation is not </tspan><tspan x="0" y="195">frequent. The awareness towards environmental sources has decreased. Through your donation we will ensure the awareness among </tspan><tspan x="0" y="230">people and will fulfill our motto.There’s a current rise in carbon emission and decrease in plantation of trees. Especially during this </tspan><tspan x="0" y="265">pandemic, tree plantation is not frequent. The awareness towards environmental sources has decreased. Through your donation we will </tspan><tspan x="0" y="300">ensure the awareness among people and will fulfill our motto.There’s a current rise in carbon emission and decrease in plantation of </tspan><tspan x="0" y="335">trees. Especially during this pandemic, tree plantation is not frequent. The awareness towards environmental sources has decreased. </tspan><tspan x="0" y="370">Through your donation we will ensure the awareness among people and will fulfill our motto.There’s a current rise in carbon emission </tspan><tspan x="0" y="405">and decrease in plantation of trees. Especially during this pandemic, tree plantation is not frequent. The awareness towards </tspan><tspan x="0" y="440">environmental sources has decreased. Through your donation we will ensure the awareness among people and will fulfill our motto.</tspan></text>
        <rect id="Rectangle_396-3" data-name="Rectangle 396" width="1434" height="72" rx="7" transform="translate(263 967)" fill="#001220"/>
        <text id="Write_a_blog-5" data-name="Write a blog" transform="translate(316 1011)" fill="#fff" font-size="24" font-family="Nunito-Bold, Nunito" font-weight="700" letter-spacing="0.014em"><tspan x="0" y="0">Write a blog</tspan></text>
      </g>
    </g>
    <g id="Group_38" data-name="Group 38" transform="translate(0 2298)">
      <g id="Group_33-2" data-name="Group 33">
        <g id="Group_32-4" data-name="Group 32">
          <g id="Group_29-4" data-name="Group 29" transform="translate(263 967)">
            <path id="Rectangle_395-4" data-name="Rectangle 395" d="M0,0H230a0,0,0,0,1,0,0V66a7,7,0,0,1-7,7H7a7,7,0,0,1-7-7V0A0,0,0,0,1,0,0Z" transform="translate(1204 635)" fill="#001220"/>
            <g id="Rectangle_394-4" data-name="Rectangle 394" fill="#fff" stroke="#001220" stroke-width="2">
              <rect width="1434" height="645" rx="7" stroke="none"/>
              <rect x="1" y="1" width="1432" height="643" rx="6" fill="none"/>
            </g>
          </g>
          <g id="Group_30-4" data-name="Group 30" transform="translate(1520 1623.555)">
            <circle id="Ellipse_91-4" data-name="Ellipse 91" cx="18" cy="18" r="18" transform="translate(0 0.445)" fill="#fff"/>
            <path id="Icon_ionic-ios-arrow-up-7" data-name="Icon ionic-ios-arrow-up" d="M18,15.886l8.93,10.177a1.54,1.54,0,0,0,2.384,0,2.125,2.125,0,0,0,0-2.722L19.2,11.81a1.54,1.54,0,0,0-2.327-.056L6.68,23.332a2.128,2.128,0,0,0,0,2.722,1.54,1.54,0,0,0,2.384,0Z" transform="translate(0.003 -0.939)" fill="#001220"/>
          </g>
          <g id="Group_31-4" data-name="Group 31" transform="translate(1611 1623.555)">
            <circle id="Ellipse_92-4" data-name="Ellipse 92" cx="18" cy="18" r="18" transform="translate(36 36.445) rotate(180)" fill="#fff"/>
            <path id="Icon_ionic-ios-arrow-up-8" data-name="Icon ionic-ios-arrow-up" d="M11.813,4.635l8.93,10.177a1.54,1.54,0,0,0,2.384,0,2.125,2.125,0,0,0,0-2.722L13.008.56A1.54,1.54,0,0,0,10.68.5L.492,12.082a2.128,2.128,0,0,0,0,2.722,1.54,1.54,0,0,0,2.384,0Z" transform="translate(29.809 25.688) rotate(180)" fill="#001220"/>
          </g>
        </g>
        <text id="There_s_a_current_rise_in_carbon_emission_and_decrease_in_plantation_of_trees._Especially_during_this_pandemic_tree_plantation_is_not_frequent._The_awareness_towards_environmental_sources_has_decreased._Through_your_donation_we_will_ensure_the_awareness_a-4" data-name="There’s a current rise in carbon emission and decrease in plantation of trees. Especially during this pandemic, tree plantation is not frequent. The awareness towards environmental sources has decreased. Through your donation we will ensure the awareness a" transform="translate(315 1109)" fill="#001220" font-size="20" font-family="Nunito-Bold, Nunito" font-weight="700" letter-spacing="0.014em"><tspan x="0" y="20">There’s a current rise in carbon emission and decrease in plantation of trees. Especially during this pandemic, tree plantation is not </tspan><tspan x="0" y="55">frequent. The awareness towards environmental sources has decreased. Through your donation we will ensure the awareness among </tspan><tspan x="0" y="90">people and will fulfill our motto.</tspan><tspan x="0" y="125"></tspan><tspan x="0" y="160">There’s a current rise in carbon emission and decrease in plantation of trees. Especially during this pandemic, tree plantation is not </tspan><tspan x="0" y="195">frequent. The awareness towards environmental sources has decreased. Through your donation we will ensure the awareness among </tspan><tspan x="0" y="230">people and will fulfill our motto.There’s a current rise in carbon emission and decrease in plantation of trees. Especially during this </tspan><tspan x="0" y="265">pandemic, tree plantation is not frequent. The awareness towards environmental sources has decreased. Through your donation we will </tspan><tspan x="0" y="300">ensure the awareness among people and will fulfill our motto.There’s a current rise in carbon emission and decrease in plantation of </tspan><tspan x="0" y="335">trees. Especially during this pandemic, tree plantation is not frequent. The awareness towards environmental sources has decreased. </tspan><tspan x="0" y="370">Through your donation we will ensure the awareness among people and will fulfill our motto.There’s a current rise in carbon emission </tspan><tspan x="0" y="405">and decrease in plantation of trees. Especially during this pandemic, tree plantation is not frequent. The awareness towards </tspan><tspan x="0" y="440">environmental sources has decreased. Through your donation we will ensure the awareness among people and will fulfill our motto.</tspan></text>
        <rect id="Rectangle_396-4" data-name="Rectangle 396" width="1434" height="72" rx="7" transform="translate(263 967)" fill="#001220"/>
        <text id="Write_a_blog-6" data-name="Write a blog" transform="translate(316 1011)" fill="#fff" font-size="24" font-family="Nunito-Bold, Nunito" font-weight="700" letter-spacing="0.014em"><tspan x="0" y="0">Write a blog</tspan></text>
      </g>
    </g>
    <path id="wave-haikei" d="M0,338.984l45.986-15.833C91.972,307.115,185.456,271.889,277,253.215c91.758-18.675,181.364-20.391,273.122-9.633,91.544,10.758,183.517,37.958,275.061,63.94,91.758,25.982,145.53,50.142,237.288,53.8,91.544,3.654,231.855-73.688,323.4-64.96,91.758,8.728,171.882,104.943,263.64,99.056,91.544-5.684,183.516-52.37,229.5-75.713L1925,296.357V0H0Z" transform="translate(0 5186.629)" fill="#001220"/>
    <g id="Group_36" data-name="Group 36" transform="translate(0 4108)">
      <rect id="Rectangle_32" data-name="Rectangle 32" width="1920" height="816" transform="translate(0 321)" fill="#001220"/>
      <g id="layered-waves-haikei_4_2" data-name="layered-waves-haikei (4)">
        <path id="Path_255-2" data-name="Path 255" d="M0,389.52l45.867-1.4c45.867-1.284,137.6-4.087,228.907-.35,91.52,3.736,182.4,13.777,273.92,20.783,91.307,7.005,183.04,10.975,274.347,6.889,91.52-4.086,182.4-16.229,273.92-14.828,91.307,1.4,183.04,16.112,274.347,21.25,91.52,5.021,182.4.35,273.92-4.67,91.307-5.137,183.04-10.508,228.907-13.31L1920,401.2v235.85H0Z" transform="translate(0 -385.898)" fill="#009473"/>
        <path id="Path_256-2" data-name="Path 256" d="M0,427.949,45.867,430.1c45.867,2.27,137.6,6.572,228.907,10.156,91.52,3.584,182.4,6.452,273.92,12.426,91.307,5.974,183.04,15.055,274.347,8.125,91.52-6.93,182.4-30.11,273.92-31.3,91.307-1.195,183.04,19.6,274.347,16.369,91.52-3.226,182.4-30.229,273.92-29.871,91.307.358,183.04,28.318,228.907,42.178L1920,472.158V637.045H0Z" transform="translate(0 -385.898)" fill="#007272"/>
        <path id="Path_257-2" data-name="Path 257" d="M0,521.547l45.867-.373c45.867-.5,137.6-1.242,228.907-15.151,91.52-13.909,182.4-40.735,273.92-45.951C640,454.856,731.733,471.5,823.04,480.564c91.52,9.066,182.4,10.8,273.92,12.171,91.307,1.49,183.04,2.732,274.347-.124,91.52-2.981,182.4-9.935,273.92-17.387,91.307-7.451,183.04-15.4,228.907-19.25L1920,452V637.045H0Z" transform="translate(0 -385.898)" fill="#00505e"/>
        <path id="Path_258-2" data-name="Path 258" d="M0,534l45.867-7c45.867-7,137.6-21,228.907-19.7,91.52,1.4,182.4,18,273.92,22,91.307,4,183.04-4.6,274.347-6.1,91.52-1.5,182.4,4.1,273.92-1.2,91.307-5.3,183.04-21.7,274.347-24.7,91.52-3,182.4,7.4,273.92,9,91.307,1.7,183.04-5.3,228.907-8.8L1920,494V601H0Z" transform="translate(0 -349.853)" fill="#033040"/>
        <path id="Path_259-2" data-name="Path 259" d="M0,640.579l45.867-15.966c45.867-15.626,137.6-47.558,228.907-64.882,91.52-17.664,182.4-21.061,273.92-22.76,91.307-1.7,183.04-1.7,274.347,19.363,91.52,20.721,182.4,62.844,273.92,68.279,91.307,5.775,183.04-24.8,274.347-40.764,91.52-15.626,182.4-16.985,273.92-6.115,91.307,10.87,183.04,33.29,228.907,44.84L1920,633.785V756.077H0Z" transform="translate(0 -395.68)" fill="#001220"/>
      </g>
    </g>
    <g id="Rectangle_397" data-name="Rectangle 397" transform="translate(310 4538)" fill="#001220" stroke="#009473" stroke-width="2">
      <rect width="1299" height="58" rx="7" stroke="none"/>
      <rect x="1" y="1" width="1297" height="56" rx="6" fill="none"/>
    </g>
    <g id="Rectangle_399" data-name="Rectangle 399" transform="translate(310 5289)" fill="#001220" stroke="#009473" stroke-width="2">
      <rect width="640" height="58" rx="7" stroke="none"/>
      <rect x="1" y="1" width="638" height="56" rx="6" fill="none"/>
    </g>
    <g id="Rectangle_400" data-name="Rectangle 400" transform="translate(970 5289)" fill="#001220" stroke="#009473" stroke-width="2">
      <rect width="639" height="58" rx="7" stroke="none"/>
      <rect x="1" y="1" width="637" height="56" rx="6" fill="none"/>
    </g>
    <g id="Rectangle_398" data-name="Rectangle 398" transform="translate(310 4690)" fill="#001220" stroke="#009473" stroke-width="2">
      <rect width="1299" height="511" rx="7" stroke="none"/>
      <rect x="1" y="1" width="1297" height="509" rx="6" fill="none"/>
    </g>
    <text id="Title_of_the_blog_:" data-name="Title of the blog :" transform="translate(287 4524)" fill="#fff" font-size="24" font-family="Nunito-Bold, Nunito" font-weight="700" letter-spacing="0.014em"><tspan x="0" y="0">Title of the blog :</tspan></text>
    <text id="Name:" transform="translate(287 5275)" fill="#fff" font-size="24" font-family="Nunito-Bold, Nunito" font-weight="700" letter-spacing="0.014em"><tspan x="0" y="0">Name:</tspan></text>
    <text id="email-id:" transform="translate(970 5275)" fill="#fff" font-size="24" font-family="Nunito-Bold, Nunito" font-weight="700" letter-spacing="0.014em"><tspan x="0" y="0">email-id:</tspan></text>
    <text id="content:" transform="translate(287 4670)" fill="#fff" font-size="24" font-family="Nunito-Bold, Nunito" font-weight="700" letter-spacing="0.014em"><tspan x="0" y="0">content:</tspan></text>
    <g id="Group_25" data-name="Group 25" transform="translate(291.5 6134)">
      <text id="CONTACT_US-2" data-name="CONTACT US" transform="translate(-2 24)" fill="#fff" font-size="24" font-family="Nunito-Regular, Nunito"><tspan x="0" y="0">CONTACT US</tspan></text>
      <text id="_44_345_678_903_adobexd_mail.com_Find_a_Store" data-name="+44 345 678 903
adobexd@mail.com
Find a Store" transform="translate(181 14)" fill="#fff" font-size="13" font-family="Nunito-Regular, Nunito"><tspan x="0" y="0">+44 345 678 903</tspan><tspan x="0" y="22">adobexd@mail.com</tspan><tspan x="0" y="44">Find a Store</tspan></text>
    </g>
    <text id="your_opinion_" data-name="your opinion !" transform="translate(789.5 4426)" fill="#fff" font-size="51" font-family="Nunito-Bold, Nunito" font-weight="700" letter-spacing="0.014em"><tspan x="0" y="0">Your Opinion !</tspan></text>
  </g>
</svg>
