<svg xmlns="http://www.w3.org/2000/svg" width="427.855" height="100.401" viewBox="0 0 427.855 100.401">
  <g id="layered-waves-haikei_3_" data-name="layered-waves-haikei (3)" transform="translate(408.446 612.131) rotate(180)">
    <path id="Path_17" data-name="Path 17" d="M0,445.784,10.118,443.4c10.118-2.386,30.353-7.159,50.494-13.416,20.188-6.311,40.235-14.053,60.423-16.969,20.141-2.917,40.376-1.008,60.517,5.038,20.188,5.992,40.235,16.068,60.423,19.78,20.141,3.712,40.376,1.061,60.517,1.591,20.188.53,40.235,4.242,60.423,2.121,20.141-2.121,40.376-10.076,50.494-14.053l10.118-3.977V512.07H0Z" transform="translate(-19.409 100.061)" fill="#0babdf"/>
    <path id="Path_18" data-name="Path 18" d="M0,462.448l9.388,1.173c9.388,1.12,28.164,3.467,46.852,1.227,18.732-2.24,37.333-8.96,56.066-9.494,18.689-.533,37.464,5.12,56.153,4.533,18.732-.64,37.333-7.574,56.066-7.2,18.689.32,37.464,8,56.153,10.4,18.732,2.4,37.333-.48,56.066.8,18.689,1.227,37.464,6.56,46.852,9.227l9.388,2.667v56H0Z" transform="translate(0.03 80.348)" fill="#00a6c1"/>
    <path id="Path_19" data-name="Path 19" d="M0,528.811l9.757-.828c9.757-.828,29.27-2.484,48.692-6.788,19.468-4.222,38.8-11.176,58.267-9.934,19.422,1.242,38.936,10.679,58.358,10.514,19.468-.166,38.8-9.768,58.267-15.729a153.2,153.2,0,0,1,58.358-6.457c19.468,1.656,38.8,7.119,58.267,9.189,19.422,2.07,38.936.745,48.692,0l9.757-.662v75.334H0Z" transform="translate(0.03 28.683)" fill="#009f9e"/>
    <path id="Path_20" data-name="Path 20" d="M0,544.842l10.221,4.337c10.221,4.2,30.663,12.875,51.01,8.944,20.394-3.795,40.646-20.057,61.041-22.361,20.347-2.168,40.789,9.487,61.136,18.838,20.394,9.216,40.646,15.992,61.041,19.651,20.347,3.523,44.543-15.585,64.89-16.127,20.394-.406,36.892,17.889,57.286,10.435,20.347-7.454,40.789-21.006,51.01-27.782L427.855,534v90.8H0Z" transform="translate(-19.409 -12.67)" fill="#009473"/>
  </g>
</svg>
