<svg id="visual" viewBox="0 0 1383 300" width="1383" height="300" xmlns="http://www.w3.org/2000/svg" xmlns:xlink="http://www.w3.org/1999/xlink" version="1.1"><path d="M0 203L33 198.5C66 194 132 185 197.8 188C263.7 191 329.3 206 395.2 214C461 222 527 223 592.8 223.5C658.7 224 724.3 224 790.2 219C856 214 922 204 987.8 197.2C1053.7 190.3 1119.3 186.7 1185.2 191.5C1251 196.3 1317 209.7 1350 216.3L1383 223L1383 301L1350 301C1317 301 1251 301 1185.2 301C1119.3 301 1053.7 301 987.8 301C922 301 856 301 790.2 301C724.3 301 658.7 301 592.8 301C527 301 461 301 395.2 301C329.3 301 263.7 301 197.8 301C132 301 66 301 33 301L0 301Z" fill="#009473"></path><path d="M0 216L33 214.7C66 213.3 132 210.7 197.8 211.8C263.7 213 329.3 218 395.2 217.2C461 216.3 527 209.7 592.8 206.3C658.7 203 724.3 203 790.2 208.3C856 213.7 922 224.3 987.8 224.8C1053.7 225.3 1119.3 215.7 1185.2 213.7C1251 211.7 1317 217.3 1350 220.2L1383 223L1383 301L1350 301C1317 301 1251 301 1185.2 301C1119.3 301 1053.7 301 987.8 301C922 301 856 301 790.2 301C724.3 301 658.7 301 592.8 301C527 301 461 301 395.2 301C329.3 301 263.7 301 197.8 301C132 301 66 301 33 301L0 301Z" fill="#007274"></path><path d="M0 248L33 245.8C66 243.7 132 239.3 197.8 235.2C263.7 231 329.3 227 395.2 225.7C461 224.3 527 225.7 592.8 230C658.7 234.3 724.3 241.7 790.2 240.3C856 239 922 229 987.8 229.3C1053.7 229.7 1119.3 240.3 1185.2 240.7C1251 241 1317 231 1350 226L1383 221L1383 301L1350 301C1317 301 1251 301 1185.2 301C1119.3 301 1053.7 301 987.8 301C922 301 856 301 790.2 301C724.3 301 658.7 301 592.8 301C527 301 461 301 395.2 301C329.3 301 263.7 301 197.8 301C132 301 66 301 33 301L0 301Z" fill="#005060"></path><path d="M0 265L33 262.7C66 260.3 132 255.7 197.8 255.5C263.7 255.3 329.3 259.7 395.2 258.2C461 256.7 527 249.3 592.8 250.2C658.7 251 724.3 260 790.2 263.3C856 266.7 922 264.3 987.8 262.5C1053.7 260.7 1119.3 259.3 1185.2 260.2C1251 261 1317 264 1350 265.5L1383 267L1383 301L1350 301C1317 301 1251 301 1185.2 301C1119.3 301 1053.7 301 987.8 301C922 301 856 301 790.2 301C724.3 301 658.7 301 592.8 301C527 301 461 301 395.2 301C329.3 301 263.7 301 197.8 301C132 301 66 301 33 301L0 301Z" fill="#022f42"></path><path d="M0 286L33 285.7C66 285.3 132 284.7 197.8 282.2C263.7 279.7 329.3 275.3 395.2 272.3C461 269.3 527 267.7 592.8 266.2C658.7 264.7 724.3 263.3 790.2 262.7C856 262 922 262 987.8 263.5C1053.7 265 1119.3 268 1185.2 270.8C1251 273.7 1317 276.3 1350 277.7L1383 279L1383 301L1350 301C1317 301 1251 301 1185.2 301C1119.3 301 1053.7 301 987.8 301C922 301 856 301 790.2 301C724.3 301 658.7 301 592.8 301C527 301 461 301 395.2 301C329.3 301 263.7 301 197.8 301C132 301 66 301 33 301L0 301Z" fill="#001122"></path></svg>