<svg xmlns="http://www.w3.org/2000/svg" width="555.633" height="424.89" viewBox="0 0 555.633 424.89">
  <g id="Group_42" data-name="Group 42" transform="translate(-1074.367 -3855.992)">
    <g id="blob-haikei" transform="translate(1322.739 4092.842)">
      <path id="Path_38" data-name="Path 38" d="M197.866-206.907c43.773,29.131,62.776,82.268,62.029,130.45-.641,48.268-21.139,91.666-47.4,136.345-26.264,44.765-58.4,90.811-109.112,112.852S-16.513,192.9-62.955,167.785C-109.4,142.584-132.991,94.06-168.33,49.124-203.561,4.1-250.537-37.416-248.3-76.115c2.242-38.785,53.7-74.836,106.122-102.771s105.7-47.67,166.657-55.016c60.962-7.262,129.61-2.136,173.383,27" fill="#e4e4e4"/>
    </g>
    <g id="undraw_pay_online_b1hk" transform="translate(1134.251 3887.858)">
      <path id="Path_226" data-name="Path 226" d="M964.985,701.941c-.036-.159-3.53-16.092,3.605-29.325s22.367-19.068,22.52-19.126l.7-.261.164.726c.036.159,3.53,16.092-3.605,29.325S966,702.348,965.846,702.405l-.7.261ZM990.853,655c-3.051,1.312-15.093,7.056-21.119,18.233s-4.209,24.4-3.629,27.664c3.05-1.309,15.087-7.044,21.119-18.233s4.208-24.393,3.631-27.664Z" transform="translate(-528.203 -343.12)" fill="#3f3d56"/>
      <path id="Path_227" data-name="Path 227" d="M983.776,695.033c-12.823,7.715-17.762,23.038-17.762,23.038s15.852,2.816,28.675-4.9,17.762-23.039,17.762-23.039S996.6,687.319,983.776,695.033Z" transform="translate(-529.066 -359.516)" fill="#d0cde1"/>
      <path id="Path_228" data-name="Path 228" d="M372.966,378.091c-1.525,0-3.065-.024-4.577-.071l.034-1.1c2.171.068,4.387.086,6.568.056l.015,1.1Q373.988,378.091,372.966,378.091Zm8.654-.255-.064-1.1c2.174-.128,4.377-.309,6.545-.536l.115,1.093c-2.186.229-4.4.411-6.6.54Zm-19.839-.171c-2.193-.168-4.408-.388-6.586-.655l.134-1.091c2.161.265,4.359.484,6.535.65Zm33-1.209-.165-1.086c2.16-.328,4.337-.708,6.469-1.132l.214,1.078c-2.148.427-4.341.811-6.518,1.141Zm-46.132-.4c-2.166-.367-4.352-.789-6.5-1.255l.233-1.075c2.129.463,4.3.881,6.449,1.245Zm59.11-2.177-.264-1.067c2.121-.524,4.253-1.1,6.338-1.722l.312,1.054c-2.1.623-4.25,1.207-6.387,1.735Zm-72.041-.63c-2.125-.565-4.263-1.187-6.355-1.849l.331-1.048c2.076.656,4.2,1.273,6.306,1.833Zm84.727-3.133-.361-1.038c2.058-.715,4.127-1.489,6.152-2.3l.408,1.021c-2.04.816-4.126,1.6-6.2,2.317Zm-97.361-.861c-2.063-.758-4.14-1.577-6.171-2.432l.427-1.013c2.015.849,4.076,1.661,6.124,2.414Zm109.634-4.05-.455-1c1.976-.9,3.963-1.857,5.9-2.849l.5.979c-1.957,1-3.958,1.966-5.95,2.87Zm11.761-6.012-.544-.954c1.9-1.082,3.787-2.218,5.622-3.379l.587.929c-1.849,1.17-3.755,2.316-5.665,3.405Zm11.17-7.067-.629-.9c1.785-1.247,3.565-2.553,5.293-3.881l.67.872c-1.741,1.338-3.535,2.653-5.334,3.909Zm-167.536-1.548c-1.774-1.289-3.546-2.639-5.268-4.013l.686-.859c1.708,1.364,3.467,2.7,5.228,3.982Zm178.021-6.511-.708-.841c1.663-1.4,3.319-2.866,4.921-4.348l.746.807c-1.614,1.492-3.282,2.966-4.958,4.381Zm-188.367-1.751c-1.652-1.447-3.294-2.952-4.879-4.474l.761-.793c1.573,1.51,3.2,3,4.842,4.44Zm198.08-7.233-.783-.772c1.533-1.554,3.05-3.162,4.507-4.779l.817.735c-1.468,1.63-3,3.25-4.542,4.815Zm-207.628-1.93c-1.516-1.594-3.013-3.242-4.45-4.9l.83-.72c1.426,1.643,2.911,3.278,4.416,4.86Zm216.488-7.9-.849-.7c1.385-1.686,2.749-3.425,4.055-5.171l.88.658C487.475,321.8,486.1,323.55,484.7,325.249Zm-225.16-2.087c-1.361-1.72-2.7-3.5-3.984-5.279l.892-.642c1.273,1.769,2.6,3.531,3.954,5.239Zm233.09-8.517-.909-.617c1.226-1.805,2.427-3.663,3.568-5.522l.937.575C495.079,310.954,493.87,312.826,492.635,314.644ZM251.822,312.43c-1.2-1.836-2.37-3.725-3.484-5.617l.947-.558c1.106,1.877,2.27,3.752,3.458,5.574Zm247.746-9.074-.962-.531c1.055-1.91,2.08-3.871,3.048-5.829l.985.487c-.974,1.973-2.008,3.949-3.072,5.873Zm5.87-11.883-1.007-.441c.876-2,1.717-4.049,2.5-6.089l1.026.394c-.789,2.055-1.637,4.12-2.519,6.136ZM239.481,289.1c-.843-2.022-1.65-4.091-2.4-6.15l1.033-.376c.743,2.043,1.544,4.1,2.38,6.1Zm270.711-10.012-1.043-.346c.686-2.067,1.333-4.18,1.924-6.28l1.058.3c-.6,2.116-1.248,4.245-1.939,6.328ZM234.965,276.68c-.654-2.095-1.269-4.235-1.826-6.361l1.063-.279c.554,2.11,1.164,4.234,1.813,6.313Zm278.81-10.33L512.7,266.1c.492-2.118.942-4.282,1.338-6.429l1.081.2C514.724,262.035,514.27,264.214,513.774,266.35Zm-282.167-2.47c-.458-2.147-.873-4.334-1.233-6.5l1.084-.18c.357,2.152.769,4.322,1.224,6.453ZM516.17,253.336l-1.09-.149c.3-2.153.545-4.348.742-6.525l1.095.1C516.719,248.955,516.467,251.167,516.17,253.336Zm-286.729-2.51c-.259-2.176-.472-4.392-.633-6.587l1.1-.081c.159,2.179.371,4.378.628,6.537Zm287.924-10.668-1.1-.049c.1-2.178.148-4.387.148-6.566h1.1C517.514,235.739,517.464,237.965,517.365,240.159Zm-288.89-2.529c-.038-1.348-.057-2.723-.057-4.086q0-1.269.022-2.533l1.1.019q-.022,1.254-.022,2.514c0,1.353.019,2.718.056,4.056Zm1.325-13.162-1.1-.069c.137-2.2.327-4.415.563-6.593l1.093.118c-.234,2.162-.422,4.364-.558,6.544Zm285.9-6.706c-.219-2.167-.521-3.224-.84-5.381l1.087-.16c.321,2.174.6,3.834.818,6.017Zm-284.491-6.349-1.086-.168c.337-2.175.728-4.366,1.163-6.515l1.077.218c-.431,2.132-.82,4.307-1.154,6.465Zm282.541-5.5c-.419-2.144-.892-4.3-1.406-6.415l1.068-.26c.518,2.129.995,4.3,1.417,6.464Zm-279.936-7.366-1.066-.267c.534-2.129,1.125-4.276,1.757-6.381l1.053.316C234.934,194.3,234.348,196.43,233.818,198.543Zm276.831-5.394c-.613-2.093-1.283-4.2-1.991-6.258l1.039-.357c.714,2.076,1.389,4.2,2.007,6.307Zm-273.047-7.2-1.037-.364c.73-2.078,1.519-4.166,2.344-6.206l1.019.412c-.819,2.024-1.6,4.1-2.326,6.158Zm268.778-5.218c-.8-2.023-1.661-4.053-2.553-6.034l1-.451c.9,2,1.764,4.042,2.572,6.081Zm-263.844-6.982-1-.459c.918-2,1.9-4,2.9-5.959l.977.5C244.416,169.776,243.447,171.765,242.536,173.749ZM501,168.783c-.984-1.941-2.026-3.885-3.1-5.779l.956-.542c1.08,1.909,2.13,3.868,3.122,5.824Zm-252.432-6.721-.953-.549c1.1-1.9,2.253-3.81,3.437-5.664l.926.591C250.8,158.281,249.657,160.172,248.569,162.062Zm245.974-4.691c-1.161-1.849-2.378-3.691-3.615-5.475l.9-.626c1.247,1.8,2.473,3.654,3.643,5.517Zm-238.9-6.388-.9-.633c1.267-1.8,2.592-3.589,3.939-5.324l.868.674C258.216,147.421,256.9,149.2,255.644,150.983Zm231.421-4.393c-1.325-1.735-2.7-3.46-4.1-5.126l.843-.706c1.407,1.679,2.8,3.417,4.132,5.165ZM263.7,140.6l-.837-.713c1.422-1.67,2.9-3.333,4.405-4.941l.8.75C266.58,137.292,265.109,138.942,263.7,140.6Zm214.936-4.072c-1.477-1.607-3.008-3.2-4.552-4.734l.775-.78c1.555,1.546,3.1,3.151,4.586,4.77ZM272.659,131l-.769-.786c1.572-1.538,3.2-3.058,4.834-4.518l.732.82c-1.623,1.449-3.237,2.958-4.8,4.484Zm196.661-3.726c-1.618-1.468-3.289-2.915-4.966-4.3l.7-.847c1.689,1.4,3.373,2.856,5,4.335Zm-186.868-5.019-.694-.852c1.7-1.384,3.457-2.75,5.222-4.058l.655.883c-1.752,1.3-3.5,2.654-5.183,4.028Zm10.543-7.814-.613-.912c1.82-1.224,3.693-2.423,5.568-3.564l.571.939c-1.86,1.132-3.719,2.322-5.525,3.537Zm11.205-6.816-.528-.965c1.925-1.053,3.9-2.075,5.866-3.038l.483.988C308.069,105.562,306.11,106.577,304.2,107.622Zm132.66-2.547c-1.956-.974-3.959-1.916-5.955-2.8l.444-1.005c2.011.889,4.03,1.837,6,2.819Zm-120.886-3.212-.437-1.009c2.012-.872,4.069-1.708,6.116-2.486l.39,1.028C320.012,100.168,317.97,101,315.973,101.863Zm108.852-2.107c-2.035-.789-4.118-1.542-6.192-2.238l.35-1.042c2.089.7,4.188,1.46,6.239,2.256Zm-96.59-2.548-.342-1.044c2.089-.685,4.22-1.33,6.334-1.916l.294,1.059c-2.1.582-4.213,1.222-6.286,1.9Zm84.125-1.634c-2.1-.6-4.235-1.154-6.355-1.654l.252-1.07c2.137.5,4.292,1.065,6.4,1.667ZM340.888,93.7l-.245-1.072c2.142-.489,4.323-.935,6.484-1.325l.2,1.082C345.178,92.768,343.013,93.21,340.888,93.7ZM399.58,92.56c-2.141-.4-4.321-.759-6.48-1.062l.152-1.088c2.177.306,4.374.666,6.531,1.071Zm-45.769-1.2-.145-1.09c2.176-.29,4.389-.535,6.577-.725l.1,1.095C358.166,90.833,355.97,91.075,353.81,91.364Zm32.766-.631c-2.165-.2-4.369-.361-6.551-.467l.054-1.1c2.2.107,4.418.265,6.6.47Zm-19.684-.511-.046-1.1c2.02-.084,4.079-.127,6.12-.128h.5l0,1.1h-.494c-2.025,0-4.069.043-6.074.127Z" transform="translate(-196.861 -88.996)" fill="#3f3d56"/>
      <rect id="Rectangle_30" data-name="Rectangle 30" width="402.865" height="1.099" transform="translate(92.884 358.507)" fill="#3f3d56"/>
      <path id="Path_229" data-name="Path 229" d="M698.476,405.008l5.5,85.19s13.191,33.526,12.641,65.4c0,0-4.946,12.641-1.1,14.84s6.046,3.847,3.847,5.5-3.847,5.5-2.2,6.6,2.2,2.748,1.649,2.748H702.324s3.3-8.244-1.649-10.443-2.2-7.695-2.2-7.695L661.652,459.42l-29.129,98.93s4.947,3.3,1.1,4.947-5.5-1.649-3.847,1.649-.55,4.947-.55,5.5-16.488-1.649-16.488-1.649,8.244-7.145,4.4-8.794-5.5-3.3-4.4-4.4,5.5-11.542,5.5-11.542,2.2-39.572,2.748-41.221,0-9.343,0-13.191-.55-19.236,1.1-23.084,3.3-51.114,12.091-56.61S698.476,405.008,698.476,405.008Z" transform="translate(-369.803 -231.318)" fill="#0e341b"/>
      <path id="Path_230" data-name="Path 230" d="M606.423,699.995s10.992,22.534,3.3,25.282-17.588.55-19.786,3.847-26.381,7.145-26.931-1.1,26.381-23.633,26.381-23.633l3.508-5.649Z" transform="translate(-347.551 -363.62)" fill="#2f2e41"/>
      <path id="Path_231" data-name="Path 231" d="M768.423,729.995s10.992,22.534,3.3,25.282-17.588.55-19.786,3.847-26.381,7.145-26.931-1.1,26.381-23.633,26.381-23.633l3.508-5.649Z" transform="translate(-420.514 -377.131)" fill="#2f2e41"/>
      <circle id="Ellipse_87" data-name="Ellipse 87" cx="18.137" cy="18.137" r="18.137" transform="translate(278.933 33.815)" fill="#e9b683"/>
      <path id="Path_232" data-name="Path 232" d="M544.095,112.025l-2.2,15.939L525.408,140.6l-4.4-6.046V113.674Z" transform="translate(-234.658 -50.455)" fill="#e2ba7c"/>
      <path id="Path_233" data-name="Path 233" d="M669.446,234.418s17.038,1.649,25.832-4.4L712.865,333.9s-62.106,4.947-64.854,1.649V303.119L659,250.357Z" transform="translate(-385.841 -152.512)" fill="#0e341b"/>
      <path id="Path_234" data-name="Path 234" d="M718.029,220.985l5.91,4.966s24.183,3.847,22.534,10.443l-6.6,78.045,2.2,26.381s-18.687-4.946-32.977,0-2.937-106.3-2.937-106.3S719.264,222.614,718.029,220.985Z" transform="translate(-410.106 -148.443)" fill="#d0cde1"/>
      <path id="Path_235" data-name="Path 235" d="M668.14,231.931s-17.588,12.691-19.786,20.935-9.343,95.083-9.343,95.083,3.3-1.649,4.946,1.1S670.888,236.278,668.14,231.931Z" transform="translate(-381.787 -153.373)" fill="#d0cde1"/>
      <path id="Path_236" data-name="Path 236" d="M677.4,158.956a8.669,8.669,0,0,1-1.208-6.117,18.54,18.54,0,0,0,.529-5.513,54.563,54.563,0,0,1,3.172-8c1.586-2.87.831-4.078,5.815-4.984s2.945-7.4,16.085-.378a3.853,3.853,0,0,0,4,1.51c2.719-.529,3.7,3.247,3.7,3.247s1.813-1.057,2.492.453,5.526-.906,5.526,9.288-5.515,19.3-5.515,19.3.4-17.149-8.582-18.886-18.653-6.8-20.994-.3a49.511,49.511,0,0,1-5.022,10.384Z" transform="translate(-398.453 -107.794)" fill="#123e1a"/>
      <ellipse id="Ellipse_88" data-name="Ellipse 88" cx="1.773" cy="2.363" rx="1.773" ry="2.363" transform="translate(311.964 50.512)" fill="#e2ba7c"/>
      <path id="Path_237" data-name="Path 237" d="M596.806,492.543c-4.349-2.615-9.593-2.416-11.586-2.216.759,1.853,3.037,6.581,7.386,9.2s9.6,2.416,11.587,2.218C603.434,499.89,601.156,495.16,596.806,492.543Z" transform="translate(-357.56 -269.703)" fill="#d0cde1"/>
      <path id="Path_238" data-name="Path 238" d="M616.2,588.87H589.016a6.116,6.116,0,0,0,0,12.232H616.2a6.116,6.116,0,0,0,0-12.232Z" transform="translate(-356.516 -314.134)" fill="#d0cde1"/>
      <path id="Path_239" data-name="Path 239" d="M731.489,471.412h-152.4a13.5,13.5,0,0,0-13.5,13.5v74.252a13.5,13.5,0,0,0,13.5,13.5h152.4a13.5,13.5,0,0,0,13.5-13.5V484.911a13.5,13.5,0,0,0-13.5-13.5ZM575.32,480.621c.3-.054,7.437-1.269,13.346,2.287s8.179,10.429,8.273,10.72l.239.741-.767.136a20.35,20.35,0,0,1-3.307.243,19.692,19.692,0,0,1-10.039-2.53c-5.909-3.554-8.179-10.429-8.272-10.719l-.239-.741ZM608.4,549.558H581.22a7.475,7.475,0,0,1,0-14.95H608.4a7.475,7.475,0,1,1,0,14.95ZM732.078,548.2a8.178,8.178,0,0,1-8.154,8.154H703.537a8.178,8.178,0,0,1-8.155-8.154V535.968a8.178,8.178,0,0,1,8.154-8.154h20.386a8.178,8.178,0,0,1,8.154,8.154Z" transform="translate(-348.72 -261.232)" fill="#d0cde1"/>
      <path id="Path_240" data-name="Path 240" d="M819.138,606.8H810.3a2.378,2.378,0,1,0,0,4.757h8.834a2.378,2.378,0,1,0,0-4.757Zm0,3.4H810.3a1.019,1.019,0,0,1,0-2.039h8.834a1.019,1.019,0,0,1,0,2.039Z" transform="translate(-457.865 -322.209)" fill="#d0cde1"/>
      <path id="Path_241" data-name="Path 241" d="M848.811,606.8h-8.834a2.378,2.378,0,0,0,0,4.757h8.834a2.378,2.378,0,0,0,0-4.757Zm0,3.4h-8.834a1.019,1.019,0,0,1,0-2.039h8.834a1.019,1.019,0,1,1,0,2.039Z" transform="translate(-471.229 -322.209)" fill="#d0cde1"/>
      <path id="Path_242" data-name="Path 242" d="M819.138,595.67H810.3a2.378,2.378,0,1,0,0,4.757h8.834a2.378,2.378,0,1,0,0-4.757Zm0,3.4H810.3a1.019,1.019,0,0,1,0-2.039h8.834a1.019,1.019,0,0,1,0,2.039Z" transform="translate(-457.865 -317.197)" fill="#d0cde1"/>
      <path id="Path_243" data-name="Path 243" d="M848.811,595.67h-8.834a2.378,2.378,0,0,0,0,4.757h8.834a2.378,2.378,0,0,0,0-4.757Zm0,3.4h-8.834a1.019,1.019,0,1,1,0-2.039h8.834a1.019,1.019,0,1,1,0,2.039Z" transform="translate(-471.229 -317.197)" fill="#d0cde1"/>
      <path id="Path_244" data-name="Path 244" d="M819.138,584.542H810.3a2.378,2.378,0,1,0,0,4.757h8.834a2.378,2.378,0,1,0,0-4.757Zm0,3.4H810.3a1.019,1.019,0,0,1,0-2.039h8.834a1.019,1.019,0,0,1,0,2.039Z" transform="translate(-457.865 -312.185)" fill="#d0cde1"/>
      <path id="Path_245" data-name="Path 245" d="M848.811,584.542h-8.834a2.378,2.378,0,0,0,0,4.757h8.834a2.378,2.378,0,0,0,0-4.757Zm0,3.4h-8.834a1.019,1.019,0,0,1,0-2.039h8.834a1.019,1.019,0,0,1,0,2.039Z" transform="translate(-471.229 -312.185)" fill="#d0cde1"/>
      <path id="Path_246" data-name="Path 246" d="M761.044,437.868l-3.94,12.856s-1.007,23.968-14.2,20.67,3.847-31.328,3.847-31.328l3.847-6.046Z" transform="translate(-426.325 -244.392)" fill="#dbbe76"/>
      <path id="Path_247" data-name="Path 247" d="M625.044,437.868l-3.94,12.856s-1.007,23.968-14.2,20.67,3.847-31.328,3.847-31.328l3.847-6.046Z" transform="translate(-365.072 -244.392)" fill="#dbbe76"/>
      <path id="Path_248" data-name="Path 248" d="M765.553,241.927s8.794-2.2,11.542,12.641,6.046,57.16,6.046,57.16L769.95,356.246s-13.191-7.145-15.939-6.046l10.38-38.649-8.731-39.4S763.354,241.927,765.553,241.927Z" transform="translate(-433.582 -157.823)" fill="#d0cde1"/>
      <path id="Path_249" data-name="Path 249" d="M580.747,209.393l11.542,38.473-11.542,39.022,6.6-39.022Z" transform="translate(-261.562 -94.308)" opacity="0.15"/>
      <path id="Path_250" data-name="Path 250" d="M639.8,297.021l-19.786,78.045s10.437,3.444,14.284,6.193Z" transform="translate(-373.23 -182.688)" fill="#d0cde1"/>
      <circle id="Ellipse_89" data-name="Ellipse 89" cx="54.961" cy="54.961" r="54.961" transform="translate(4.046 200.544)" fill="#0a291c"/>
      <path id="Path_251" data-name="Path 251" d="M266.724,558.8v-6.879a15.975,15.975,0,0,1-9.174-3l1.439-4.563a14.664,14.664,0,0,0,8.634,2.929c4.257,0,7.135-2.793,7.135-6.675,0-3.746-2.338-6.062-6.775-8.106-6.116-2.724-9.893-5.858-9.893-11.784a10.71,10.71,0,0,1,9.054-10.966v-6.88h3.717v6.607a14.588,14.588,0,0,1,7.795,2.384l-1.5,4.5a13.25,13.25,0,0,0-7.555-2.316c-4.617,0-6.356,3.133-6.356,5.858,0,3.542,2.218,5.313,7.435,7.765,6.176,2.861,9.294,6.4,9.294,12.465a11.4,11.4,0,0,1-9.474,11.579V558.8Z" transform="translate(-209.982 -275.405)" fill="#009473"/>
      <path id="Path_252" data-name="Path 252" d="M288.067,746.48a396.831,396.831,0,0,1-117.067,0V733.289a440.972,440.972,0,0,0,117.067,0Z" transform="translate(-171 -379.179)" fill="#0a291c"/>
      <path id="Path_253" data-name="Path 253" d="M288.067,709.48a396.831,396.831,0,0,1-117.067,0V696.289a440.969,440.969,0,0,0,117.067,0Z" transform="translate(-171 -362.514)" fill="#0a291c"/>
      <path id="Path_254" data-name="Path 254" d="M288.067,672.48a396.831,396.831,0,0,1-117.067,0V659.289a440.969,440.969,0,0,0,117.067,0Z" transform="translate(-171 -345.85)" fill="#051e1e"/>
    </g>
  </g>
</svg>
