<svg xmlns="http://www.w3.org/2000/svg" width="1456" height="442.936" viewBox="0 0 1456 442.936">
  <g id="Group_43" data-name="Group 43" transform="translate(3583 -7088.064)">
    <g id="layered-waves-haikei_4_" data-name="layered-waves-haikei (4)" transform="translate(-3583 7088.064)">
      <path id="Path_255" data-name="Path 255" d="M0,388.745l34.782-1.1c34.782-1.01,104.347-3.212,173.588-.275,69.4,2.937,138.32,10.83,207.723,16.336,69.241,5.507,138.805,8.627,208.046,5.415,69.4-3.212,138.32-12.757,207.723-11.656,69.241,1.1,138.805,12.665,208.046,16.7,69.4,3.947,138.32.275,207.723-3.671,69.241-4.038,138.805-8.26,173.588-10.463L1456,397.923V583.315H0Z" transform="translate(0 -385.898)" fill="#009473"/>
      <path id="Path_256" data-name="Path 256" d="M0,427.949,34.782,430.1c34.782,2.27,104.347,6.572,173.588,10.156,69.4,3.584,138.32,6.452,207.723,12.426,69.241,5.974,138.805,15.055,208.046,8.125,69.4-6.93,138.32-30.11,207.723-31.3,69.241-1.195,138.805,19.6,208.046,16.369,69.4-3.226,138.32-30.229,207.723-29.871,69.241.358,138.805,28.318,173.588,42.178L1456,472.158V637.045H0Z" transform="translate(0 -385.898)" fill="#007272"/>
      <path id="Path_257" data-name="Path 257" d="M0,521.547l34.782-.373c34.782-.5,104.347-1.242,173.588-15.151,69.4-13.909,138.32-40.735,207.723-45.951,69.241-5.216,138.805,11.426,208.046,20.492,69.4,9.066,138.32,10.8,207.723,12.171,69.241,1.49,138.805,2.732,208.046-.124,69.4-2.981,138.32-9.935,207.723-17.387,69.241-7.451,138.805-15.4,173.588-19.25L1456,452V637.045H0Z" transform="translate(0 -423.045)" fill="#00505e"/>
      <path id="Path_258" data-name="Path 258" d="M0,534l34.782-7c34.782-7,104.347-21,173.588-19.7,69.4,1.4,138.32,18,207.723,22,69.241,4,138.805-4.6,208.046-6.1,69.4-1.5,138.32,4.1,207.723-1.2,69.241-5.3,138.805-21.7,208.046-24.7,69.4-3,138.32,7.4,207.723,9,69.241,1.7,138.805-5.3,173.588-8.8L1456,494V601H0Z" transform="translate(0 -405.235)" fill="#033040"/>
      <path id="Path_259" data-name="Path 259" d="M0,617.933l34.782-12.5C69.564,593.2,139.129,568.205,208.37,554.643c69.4-13.828,138.32-16.487,207.723-17.817,69.241-1.33,138.805-1.33,208.046,15.158,69.4,16.221,138.32,49.2,207.723,53.45,69.241,4.521,138.805-19.412,208.046-31.911,69.4-12.232,138.32-13.3,207.723-4.787,69.241,8.51,138.805,26.06,173.588,35.1L1456,612.614v95.732H0Z" transform="translate(0 -449.411)" fill="#001220"/>
    </g>
    <rect id="Rectangle_39" data-name="Rectangle 39" width="1456" height="203" transform="translate(-3583 7328)" fill="#001220"/>
  </g>
</svg>
