<svg id="visual" viewBox="0 0 1456 200" width="1456" height="200" xmlns="http://www.w3.org/2000/svg" xmlns:xlink="http://www.w3.org/1999/xlink" version="1.1"><path d="M0 129L34.7 133.5C69.3 138 138.7 147 208 142.2C277.3 137.3 346.7 118.7 416 111.2C485.3 103.7 554.7 107.3 624 108.8C693.3 110.3 762.7 109.7 832 116.3C901.3 123 970.7 137 1040 138.2C1109.3 139.3 1178.7 127.7 1248 127C1317.3 126.3 1386.7 136.7 1421.3 141.8L1456 147L1456 0L1421.3 0C1386.7 0 1317.3 0 1248 0C1178.7 0 1109.3 0 1040 0C970.7 0 901.3 0 832 0C762.7 0 693.3 0 624 0C554.7 0 485.3 0 416 0C346.7 0 277.3 0 208 0C138.7 0 69.3 0 34.7 0L0 0Z" fill="#4facf7"></path><path d="M0 126L34.7 122.5C69.3 119 138.7 112 208 108.5C277.3 105 346.7 105 416 105.7C485.3 106.3 554.7 107.7 624 108C693.3 108.3 762.7 107.7 832 107.8C901.3 108 970.7 109 1040 111.2C1109.3 113.3 1178.7 116.7 1248 112.8C1317.3 109 1386.7 98 1421.3 92.5L1456 87L1456 0L1421.3 0C1386.7 0 1317.3 0 1248 0C1178.7 0 1109.3 0 1040 0C970.7 0 901.3 0 832 0C762.7 0 693.3 0 624 0C554.7 0 485.3 0 416 0C346.7 0 277.3 0 208 0C138.7 0 69.3 0 34.7 0L0 0Z" fill="#0babdf"></path><path d="M0 71L34.7 71.5C69.3 72 138.7 73 208 73.3C277.3 73.7 346.7 73.3 416 75C485.3 76.7 554.7 80.3 624 81.7C693.3 83 762.7 82 832 84.3C901.3 86.7 970.7 92.3 1040 88.5C1109.3 84.7 1178.7 71.3 1248 65.2C1317.3 59 1386.7 60 1421.3 60.5L1456 61L1456 0L1421.3 0C1386.7 0 1317.3 0 1248 0C1178.7 0 1109.3 0 1040 0C970.7 0 901.3 0 832 0C762.7 0 693.3 0 624 0C554.7 0 485.3 0 416 0C346.7 0 277.3 0 208 0C138.7 0 69.3 0 34.7 0L0 0Z" fill="#00a6c1"></path><path d="M0 40L34.7 43.5C69.3 47 138.7 54 208 55.5C277.3 57 346.7 53 416 54.8C485.3 56.7 554.7 64.3 624 67.2C693.3 70 762.7 68 832 65.2C901.3 62.3 970.7 58.7 1040 58.3C1109.3 58 1178.7 61 1248 60C1317.3 59 1386.7 54 1421.3 51.5L1456 49L1456 0L1421.3 0C1386.7 0 1317.3 0 1248 0C1178.7 0 1109.3 0 1040 0C970.7 0 901.3 0 832 0C762.7 0 693.3 0 624 0C554.7 0 485.3 0 416 0C346.7 0 277.3 0 208 0C138.7 0 69.3 0 34.7 0L0 0Z" fill="#009f9e"></path><path d="M0 23L34.7 26.5C69.3 30 138.7 37 208 39.5C277.3 42 346.7 40 416 39.5C485.3 39 554.7 40 624 36.5C693.3 33 762.7 25 832 24C901.3 23 970.7 29 1040 31.2C1109.3 33.3 1178.7 31.7 1248 33.3C1317.3 35 1386.7 40 1421.3 42.5L1456 45L1456 0L1421.3 0C1386.7 0 1317.3 0 1248 0C1178.7 0 1109.3 0 1040 0C970.7 0 901.3 0 832 0C762.7 0 693.3 0 624 0C554.7 0 485.3 0 416 0C346.7 0 277.3 0 208 0C138.7 0 69.3 0 34.7 0L0 0Z" fill="#009473"></path></svg>