<svg id="visual" viewBox="0 0 1456 400" width="1456" height="400" xmlns="http://www.w3.org/2000/svg" xmlns:xlink="http://www.w3.org/1999/xlink" version="1.1"><path d="M0 235L34.7 238.3C69.3 241.7 138.7 248.3 208 258.5C277.3 268.7 346.7 282.3 416 282.7C485.3 283 554.7 270 624 267.2C693.3 264.3 762.7 271.7 832 272.2C901.3 272.7 970.7 266.3 1040 269.2C1109.3 272 1178.7 284 1248 290C1317.3 296 1386.7 296 1421.3 296L1456 296L1456 401L1421.3 401C1386.7 401 1317.3 401 1248 401C1178.7 401 1109.3 401 1040 401C970.7 401 901.3 401 832 401C762.7 401 693.3 401 624 401C554.7 401 485.3 401 416 401C346.7 401 277.3 401 208 401C138.7 401 69.3 401 34.7 401L0 401Z" fill="#4facf7"></path><path d="M0 280L34.7 279.3C69.3 278.7 138.7 277.3 208 281.7C277.3 286 346.7 296 416 295.5C485.3 295 554.7 284 624 279.5C693.3 275 762.7 277 832 282.3C901.3 287.7 970.7 296.3 1040 298.2C1109.3 300 1178.7 295 1248 297.5C1317.3 300 1386.7 310 1421.3 315L1456 320L1456 401L1421.3 401C1386.7 401 1317.3 401 1248 401C1178.7 401 1109.3 401 1040 401C970.7 401 901.3 401 832 401C762.7 401 693.3 401 624 401C554.7 401 485.3 401 416 401C346.7 401 277.3 401 208 401C138.7 401 69.3 401 34.7 401L0 401Z" fill="#0babdf"></path><path d="M0 329L34.7 327C69.3 325 138.7 321 208 315.7C277.3 310.3 346.7 303.7 416 306.7C485.3 309.7 554.7 322.3 624 325.3C693.3 328.3 762.7 321.7 832 314.5C901.3 307.3 970.7 299.7 1040 298.8C1109.3 298 1178.7 304 1248 305.2C1317.3 306.3 1386.7 302.7 1421.3 300.8L1456 299L1456 401L1421.3 401C1386.7 401 1317.3 401 1248 401C1178.7 401 1109.3 401 1040 401C970.7 401 901.3 401 832 401C762.7 401 693.3 401 624 401C554.7 401 485.3 401 416 401C346.7 401 277.3 401 208 401C138.7 401 69.3 401 34.7 401L0 401Z" fill="#00a6c1"></path><path d="M0 357L34.7 356.7C69.3 356.3 138.7 355.7 208 352.8C277.3 350 346.7 345 416 342.5C485.3 340 554.7 340 624 340.5C693.3 341 762.7 342 832 339.2C901.3 336.3 970.7 329.7 1040 326.2C1109.3 322.7 1178.7 322.3 1248 324.2C1317.3 326 1386.7 330 1421.3 332L1456 334L1456 401L1421.3 401C1386.7 401 1317.3 401 1248 401C1178.7 401 1109.3 401 1040 401C970.7 401 901.3 401 832 401C762.7 401 693.3 401 624 401C554.7 401 485.3 401 416 401C346.7 401 277.3 401 208 401C138.7 401 69.3 401 34.7 401L0 401Z" fill="#009f9e"></path><path d="M0 377L34.7 377.8C69.3 378.7 138.7 380.3 208 380.8C277.3 381.3 346.7 380.7 416 375.3C485.3 370 554.7 360 624 356C693.3 352 762.7 354 832 356.3C901.3 358.7 970.7 361.3 1040 361.8C1109.3 362.3 1178.7 360.7 1248 358.2C1317.3 355.7 1386.7 352.3 1421.3 350.7L1456 349L1456 401L1421.3 401C1386.7 401 1317.3 401 1248 401C1178.7 401 1109.3 401 1040 401C970.7 401 901.3 401 832 401C762.7 401 693.3 401 624 401C554.7 401 485.3 401 416 401C346.7 401 277.3 401 208 401C138.7 401 69.3 401 34.7 401L0 401Z" fill="#009473"></path></svg>