<svg xmlns="http://www.w3.org/2000/svg" width="33.213" height="35.917" viewBox="0 0 33.213 35.917">
  <path id="Icon_simple-electron" data-name="Icon simple-electron" d="M3.972,17.517C2.415,14.8,2.1,12.261,3.205,10.345c1.482-2.568,5.2-3.465,9.906-2.609a.483.483,0,1,1-.172.949c-4.35-.792-7.667.007-8.9,2.142-.908,1.571-.635,3.764.768,6.21a.483.483,0,1,1-.837.48Zm22.38-9.1c2.753.036,4.734.894,5.627,2.439,1.23,2.128.27,5.392-2.577,8.755a.483.483,0,1,0,.735.624c3.081-3.639,4.156-7.3,2.677-9.863-1.089-1.885-3.39-2.88-6.448-2.92a.483.483,0,1,0-.012.965ZM23.571,31.272a.483.483,0,0,0-.663.165c-1.4,2.33-3.12,3.6-4.89,3.6-2.463,0-4.812-2.471-6.3-6.627a.483.483,0,1,0-.909.326c1.61,4.5,4.245,7.266,7.206,7.266,2.16,0,4.16-1.473,5.719-4.065a.483.483,0,0,0-.165-.663ZM34.6,27.381a2.31,2.31,0,0,1-3.654,1.875c-3.682,2.168-10.719,1.065-17.34-2.76a30.187,30.187,0,0,1-7.193-5.677.483.483,0,1,1,.714-.649,29.205,29.205,0,0,0,6.96,5.492c6.251,3.609,12.83,4.68,16.2,2.859A2.31,2.31,0,1,1,34.6,27.381Zm-28.593,0a2.31,2.31,0,1,1-3.428-2.017c-.349-4.316,4.185-10.1,11.04-14.058a30.075,30.075,0,0,1,8.6-3.406.483.483,0,0,1,.2.942,29.208,29.208,0,0,0-8.317,3.3C7.65,15.868,3.384,21.242,3.534,25.082c.057,0,.112-.009.169-.009a2.311,2.311,0,0,1,2.31,2.31Zm9.7-25.071a2.31,2.31,0,0,1,4.617,0c0,.034,0,.068,0,.1,3.823,1.976,6.48,8.715,6.48,16.5a30.278,30.278,0,0,1-1.281,8.94.483.483,0,1,1-.921-.288,29.322,29.322,0,0,0,1.237-8.652c0-7.335-2.439-13.642-5.771-15.545A2.307,2.307,0,0,1,15.708,2.31Zm1.956,14.971a1.671,1.671,0,1,0,1.986,1.281A1.671,1.671,0,0,0,17.664,17.281Z" transform="translate(-1.392 -0.083)" fill="#fff"/>
</svg>
