<svg xmlns="http://www.w3.org/2000/svg" width="26.999" height="36.001" viewBox="0 0 26.999 36.001">
  <path id="Icon_awesome-tree" data-name="Icon awesome-tree" d="M26.6,26.613,20.983,20.25h2.154a1.6,1.6,0,0,0,1.461-.918,1.55,1.55,0,0,0-.231-1.691L18.873,11.25H20.9a1.593,1.593,0,0,0,1.467-.957,1.564,1.564,0,0,0-.3-1.693L14.32.34a1.158,1.158,0,0,0-1.64,0L4.926,8.6a1.566,1.566,0,0,0-.3,1.693A1.594,1.594,0,0,0,6.1,11.25H8.127L2.632,17.642a1.552,1.552,0,0,0-.23,1.69,1.6,1.6,0,0,0,1.461.918H6.017L.4,26.613a1.554,1.554,0,0,0-.25,1.706,1.631,1.631,0,0,0,1.477.932H11.25v1.719l-2.13,3.4A1.125,1.125,0,0,0,10.126,36h6.747a1.125,1.125,0,0,0,1.006-1.628l-2.13-3.4V29.25h9.623a1.631,1.631,0,0,0,1.477-.932A1.554,1.554,0,0,0,26.6,26.613Z" transform="translate(0 0)" fill="#fff"/>
</svg>
