<svg id="visual" viewBox="0 0 1456 200" width="1456" height="200" xmlns="http://www.w3.org/2000/svg" xmlns:xlink="http://www.w3.org/1999/xlink" version="1.1"><path d="M0 91L34.7 90.3C69.3 89.7 138.7 88.3 208 85.2C277.3 82 346.7 77 416 72.7C485.3 68.3 554.7 64.7 624 61.8C693.3 59 762.7 57 832 61.5C901.3 66 970.7 77 1040 73.5C1109.3 70 1178.7 52 1248 47.3C1317.3 42.7 1386.7 51.3 1421.3 55.7L1456 60L1456 201L1421.3 201C1386.7 201 1317.3 201 1248 201C1178.7 201 1109.3 201 1040 201C970.7 201 901.3 201 832 201C762.7 201 693.3 201 624 201C554.7 201 485.3 201 416 201C346.7 201 277.3 201 208 201C138.7 201 69.3 201 34.7 201L0 201Z" fill="#009473"></path><path d="M0 70L34.7 74.7C69.3 79.3 138.7 88.7 208 91.3C277.3 94 346.7 90 416 84C485.3 78 554.7 70 624 71.3C693.3 72.7 762.7 83.3 832 84.7C901.3 86 970.7 78 1040 78.3C1109.3 78.7 1178.7 87.3 1248 95.5C1317.3 103.7 1386.7 111.3 1421.3 115.2L1456 119L1456 201L1421.3 201C1386.7 201 1317.3 201 1248 201C1178.7 201 1109.3 201 1040 201C970.7 201 901.3 201 832 201C762.7 201 693.3 201 624 201C554.7 201 485.3 201 416 201C346.7 201 277.3 201 208 201C138.7 201 69.3 201 34.7 201L0 201Z" fill="#007274"></path><path d="M0 114L34.7 112.5C69.3 111 138.7 108 208 108.5C277.3 109 346.7 113 416 113.3C485.3 113.7 554.7 110.3 624 109.3C693.3 108.3 762.7 109.7 832 107.7C901.3 105.7 970.7 100.3 1040 99.7C1109.3 99 1178.7 103 1248 108.3C1317.3 113.7 1386.7 120.3 1421.3 123.7L1456 127L1456 201L1421.3 201C1386.7 201 1317.3 201 1248 201C1178.7 201 1109.3 201 1040 201C970.7 201 901.3 201 832 201C762.7 201 693.3 201 624 201C554.7 201 485.3 201 416 201C346.7 201 277.3 201 208 201C138.7 201 69.3 201 34.7 201L0 201Z" fill="#005060"></path><path d="M0 136L34.7 140C69.3 144 138.7 152 208 151C277.3 150 346.7 140 416 135.3C485.3 130.7 554.7 131.3 624 136C693.3 140.7 762.7 149.3 832 153.7C901.3 158 970.7 158 1040 151.7C1109.3 145.3 1178.7 132.7 1248 130.7C1317.3 128.7 1386.7 137.3 1421.3 141.7L1456 146L1456 201L1421.3 201C1386.7 201 1317.3 201 1248 201C1178.7 201 1109.3 201 1040 201C970.7 201 901.3 201 832 201C762.7 201 693.3 201 624 201C554.7 201 485.3 201 416 201C346.7 201 277.3 201 208 201C138.7 201 69.3 201 34.7 201L0 201Z" fill="#022f42"></path><path d="M0 177L34.7 176.5C69.3 176 138.7 175 208 170.3C277.3 165.7 346.7 157.3 416 153.7C485.3 150 554.7 151 624 156C693.3 161 762.7 170 832 174C901.3 178 970.7 177 1040 173.3C1109.3 169.7 1178.7 163.3 1248 164.2C1317.3 165 1386.7 173 1421.3 177L1456 181L1456 201L1421.3 201C1386.7 201 1317.3 201 1248 201C1178.7 201 1109.3 201 1040 201C970.7 201 901.3 201 832 201C762.7 201 693.3 201 624 201C554.7 201 485.3 201 416 201C346.7 201 277.3 201 208 201C138.7 201 69.3 201 34.7 201L0 201Z" fill="#001122"></path></svg>