<svg xmlns="http://www.w3.org/2000/svg" width="427.2" height="100.401" viewBox="0 0 427.2 100.401">
  <g id="layered-waves-haikei_3_" data-name="layered-waves-haikei (3)" transform="translate(407.791 612.131) rotate(180)">
    <path id="Path_17" data-name="Path 17" d="M0,445.784,9.374,443.4c9.374-2.386,28.121-7.159,46.781-13.416,18.7-6.311,37.276-14.053,55.98-16.969,18.66-2.917,37.407-1.008,56.067,5.038,18.7,5.992,37.276,16.068,55.98,19.78,18.66,3.712,37.407,1.061,56.067,1.591,18.7.53,37.276,4.242,55.98,2.121,18.66-2.121,37.407-10.076,46.781-14.053l9.374-3.977V512.07H0Z" transform="translate(0 100.061)" fill="#0babdf"/>
    <path id="Path_18" data-name="Path 18" d="M0,462.448l9.374,1.173c9.374,1.12,28.121,3.467,46.781,1.227,18.7-2.24,37.276-8.96,55.98-9.494,18.66-.533,37.407,5.12,56.067,4.533,18.7-.64,37.276-7.574,55.98-7.2,18.66.32,37.407,8,56.067,10.4,18.7,2.4,37.276-.48,55.98.8,18.66,1.227,37.407,6.56,46.781,9.227l9.374,2.667v56H0Z" transform="translate(0 80.348)" fill="#00a6c1"/>
    <path id="Path_19" data-name="Path 19" d="M0,528.811l9.374-.828c9.374-.828,28.121-2.484,46.781-6.788,18.7-4.222,37.276-11.176,55.98-9.934,18.66,1.242,37.407,10.679,56.067,10.514,18.7-.166,37.276-9.768,55.98-15.729a141.729,141.729,0,0,1,56.067-6.457c18.7,1.656,37.276,7.119,55.98,9.189,18.66,2.07,37.407.745,46.781,0l9.374-.662v75.334H0Z" transform="translate(0 28.683)" fill="#009f9e"/>
    <path id="Path_20" data-name="Path 20" d="M0,544.842l10.205,4.337c10.205,4.2,30.616,12.875,50.932,8.944,20.363-3.795,40.584-20.057,60.947-22.361,20.316-2.168,40.726,9.487,61.042,18.838,20.363,9.216,40.584,15.992,60.947,19.651,20.316,3.523,44.475-15.585,64.791-16.127,20.363-.406,36.835,17.889,57.2,10.435,20.316-7.454,40.726-21.006,50.932-27.782L427.2,534v90.8H0Z" transform="translate(-19.409 -12.67)" fill="#009473"/>
  </g>
</svg>
