<svg xmlns="http://www.w3.org/2000/svg" width="551.413" height="369.923" viewBox="0 0 551.413 369.923">
  <g id="opinion" transform="translate(-1091.586 -4847.077)">
    <g id="blob-haikei" transform="translate(1091.586 4847.077)">
      <path id="Path_38" data-name="Path 38" d="M235.726-210.781c47.486,25.363,68.1,71.626,67.292,113.574C302.323-55.183,280.086-17.4,251.594,21.5,223.1,60.474,188.24,100.563,133.225,119.753S3.158,137.306-47.224,115.439C-97.606,93.5-123.2,51.251-161.539,12.129c-38.221-39.2-89.182-75.344-86.75-109.037,2.432-33.767,58.258-65.155,115.126-89.476s114.662-41.5,180.8-47.9c66.134-6.322,140.606-1.859,188.093,23.5" transform="translate(248.372 236.85)" fill="#e4e4e4"/>
    </g>
    <g id="undraw_Publish_article_re_3x8h" transform="translate(1163.395 4857.265)">
      <rect id="Rectangle_246" data-name="Rectangle 246" width="318.334" height="187.483" transform="translate(0.194 0.258)" fill="#e6e6e6"/>
      <rect id="Rectangle_264" data-name="Rectangle 264" width="318.334" height="19.377" fill="#009473"/>
      <rect id="Rectangle_247" data-name="Rectangle 247" width="303.531" height="153.084" transform="translate(7.341 25.329)" fill="#fff"/>
      <ellipse id="Ellipse_194" data-name="Ellipse 194" cx="3.205" cy="3.205" rx="3.205" ry="3.205" transform="translate(26.96 6.434)" fill="#fff"/>
      <ellipse id="Ellipse_195" data-name="Ellipse 195" cx="3.205" cy="3.205" rx="3.205" ry="3.205" transform="translate(39.127 6.434)" fill="#fff"/>
      <ellipse id="Ellipse_246" data-name="Ellipse 246" cx="3.205" cy="3.205" rx="3.205" ry="3.205" transform="translate(14.762 6.434)" fill="#fff"/>
      <rect id="Rectangle_250" data-name="Rectangle 250" width="232.729" height="6.079" transform="translate(42.742 51.765)" fill="#e6e6e6"/>
      <rect id="Rectangle_251" data-name="Rectangle 251" width="82.979" height="6.079" transform="translate(117.617 66.961)" fill="#e6e6e6"/>
      <rect id="Rectangle_251-2" data-name="Rectangle 251" width="82.979" height="6.079" transform="translate(117.617 97.785)" fill="#e6e6e6"/>
      <rect id="Rectangle_251-3" data-name="Rectangle 251" width="82.979" height="6.079" transform="translate(117.617 113.574)" fill="#e6e6e6"/>
      <rect id="Rectangle_252" data-name="Rectangle 252" width="165.309" height="6.079" transform="translate(76.451 82.157)" fill="#e6e6e6"/>
      <rect id="Rectangle_33" data-name="Rectangle 33" width="43.66" height="10.794" transform="translate(231.811 141.183)" fill="#009473"/>
      <path id="Path_260" data-name="Path 260" d="M523.959,510.358h-7.332l-3.489-28.282h10.822Z" transform="translate(-206.243 -193.758)" fill="#9f616a"/>
      <path id="Path_261" data-name="Path 261" d="M504.232,525.861h14.141v8.9H495.328a8.9,8.9,0,0,1,8.9-8.9Z" transform="translate(-199.084 -211.356)" fill="#2f2e41"/>
      <path id="Path_262" data-name="Path 262" d="M569.959,510.358h-7.332l-3.489-28.282h10.822Z" transform="translate(-224.732 -193.758)" fill="#9f616a"/>
      <path id="Path_263" data-name="Path 263" d="M550.231,525.861h14.141v8.9H541.328A8.9,8.9,0,0,1,550.231,525.861Z" transform="translate(-217.573 -211.356)" fill="#2f2e41"/>
      <path id="Path_264" data-name="Path 264" d="M857.185,515.54a6.425,6.425,0,0,1-1.233-9.774l-4.828-68.514L865.03,438.6l.382,67.1a6.46,6.46,0,0,1-8.228,9.844Z" transform="translate(-512.852 -283.172)" fill="#9f616a"/>
      <path id="Path_265" data-name="Path 265" d="M808.65,626.408l-8.072-.385a2.691,2.691,0,0,1-2.563-2.669l-.563-81.671A2.692,2.692,0,0,1,800.53,539l32.292,4.688a2.676,2.676,0,0,1,2.3,2.643l4.153,75.677a2.692,2.692,0,0,1-2.691,2.712h-8.7a2.679,2.679,0,0,1-2.659-2.273s-6.573-56.765-7.476-56.731c-.907.017-6.3,58.324-6.3,58.324a2.7,2.7,0,0,1-2.673,2.372Q808.715,626.411,808.65,626.408Z" transform="translate(-491.28 -324.056)" fill="#2f2e41"/>
      <path id="Path_266" data-name="Path 266" d="M854.948,456.709a2.68,2.68,0,0,1-1.112-2.034l-1.019-18.466a7.415,7.415,0,0,1,14.561-2.349l4.476,16.51a2.694,2.694,0,0,1-1.893,3.3l-12.733,3.452A2.681,2.681,0,0,1,854.948,456.709Z" transform="translate(-513.529 -279.608)" fill="#3f3d56"/>
      <ellipse id="Ellipse_90" data-name="Ellipse 90" cx="14.689" cy="14.689" rx="14.689" ry="14.689" transform="translate(314.835 103.835)" fill="#9f616a"/>
      <path id="Path_267" data-name="Path 267" d="M739.17,422.8a6.288,6.288,0,0,1,.143.981L765,438.6l6.245-3.6,6.657,8.715-13.359,9.522-29.31-23.123a6.277,6.277,0,1,1,3.933-7.321Z" transform="translate(-462.876 -275.417)" fill="#9f616a"/>
      <path id="Path_268" data-name="Path 268" d="M792.216,438.653a2.68,2.68,0,0,1,.774-2.185l13.076-13.079a7.415,7.415,0,0,1,11.464,9.28l-9.312,14.349a2.694,2.694,0,0,1-3.723.792l-11.067-7.182a2.682,2.682,0,0,1-1.212-1.976Z" transform="translate(-489.17 -276.727)" fill="#3f3d56"/>
      <path id="Path_269" data-name="Path 269" d="M835.524,375.183c-2.74,2.919-7.83,1.352-8.187-2.636a4.826,4.826,0,0,1,.006-.93c.184-1.766,1.2-3.37.96-5.235a2.745,2.745,0,0,0-.5-1.285c-2.184-2.924-7.31,1.308-9.371-1.339-1.264-1.623.222-4.179-.748-5.993-1.28-2.394-5.071-1.213-7.448-2.525-2.645-1.459-2.487-5.517-.746-7.986a12.562,12.562,0,0,1,9.523-4.848,25.546,25.546,0,0,1,10.761,2.1c3.9,1.52,7.768,3.62,10.168,7.05,2.919,4.171,3.2,9.777,1.74,14.654C840.791,369.175,837.761,372.8,835.524,375.183Z" transform="translate(-495.604 -245.037)" fill="#2f2e41"/>
      <path id="Path_270" data-name="Path 270" d="M835.5,719.384H720.074a.6.6,0,1,1,0-1.2H835.5a.6.6,0,1,1,0,1.2Z" transform="translate(-459.94 -396.087)" fill="#3f3d56"/>
      <path id="Path_271" data-name="Path 271" d="M834.872,414.315q-.383-.275-.781-.54a19.354,19.354,0,0,0-4.543-2.227v-3.86H818.185v3.581a19.928,19.928,0,0,0-14.451,16.558L796,485.273a2.678,2.678,0,0,0,.557,2.034,2.643,2.643,0,0,0,1.826,1,40.623,40.623,0,0,1,15.358,5.261,22.8,22.8,0,0,0,11.187,2.855,26.967,26.967,0,0,0,9.106-1.621,2.671,2.671,0,0,0,1.745-2.4c.279-6.182,1.908-38,6.653-57.415a19.843,19.843,0,0,0-7.557-20.677Z" transform="translate(-490.685 -271.289)" fill="#3f3d56"/>
    </g>
  </g>
</svg>
