<svg xmlns="http://www.w3.org/2000/svg" width="674.103" height="454.861" viewBox="0 0 674.103 454.861">
  <g id="road" transform="translate(7052.59 -1884.464)">
    <path id="Path_272" data-name="Path 272" d="M762.609,2618.152h0c5.26,19.6,37.165,29.535,188.489,44.137,302.648,29.2,423.444,65,420.359,153.556s-235.734,133.773-467.338,148.846-203.593,97.974-203.593,97.974" transform="translate(-7751 -723.66)" fill="none" stroke="#fff" stroke-width="2"/>
    <path id="Icon_awesome-dot-circle" data-name="Icon awesome-dot-circle" d="M10.879.563A10.316,10.316,0,1,0,21.2,10.879,10.316,10.316,0,0,0,10.879.563Zm3.328,10.316a3.328,3.328,0,1,1-3.328-3.328A3.332,3.332,0,0,1,14.207,10.879Z" transform="translate(-6998.552 1883.901)" fill="#fff"/>
    <path id="Icon_awesome-dot-circle-2" data-name="Icon awesome-dot-circle" d="M10.879.563A10.316,10.316,0,1,0,21.2,10.879,10.316,10.316,0,0,0,10.879.563Zm3.328,10.316a3.328,3.328,0,1,1-3.328-3.328A3.332,3.332,0,0,1,14.207,10.879Z" transform="translate(-6781.552 1930.901)" fill="#fff"/>
    <path id="Icon_awesome-dot-circle-3" data-name="Icon awesome-dot-circle" d="M10.879.563A10.316,10.316,0,1,0,21.2,10.879,10.316,10.316,0,0,0,10.879.563Zm3.328,10.316a3.328,3.328,0,1,1-3.328-3.328A3.332,3.332,0,0,1,14.207,10.879Z" transform="translate(-6509.552 2173.901)" fill="#fff"/>
    <path id="Icon_awesome-dot-circle-4" data-name="Icon awesome-dot-circle" d="M10.879.563A10.316,10.316,0,1,0,21.2,10.879,10.316,10.316,0,0,0,10.879.563Zm3.328,10.316a3.328,3.328,0,1,1-3.328-3.328A3.332,3.332,0,0,1,14.207,10.879Z" transform="translate(-6696.552 2213.901)" fill="#fff"/>
    <path id="Icon_awesome-dot-circle-5" data-name="Icon awesome-dot-circle" d="M10.879.563A10.316,10.316,0,1,0,21.2,10.879,10.316,10.316,0,0,0,10.879.563Zm3.328,10.316a3.328,3.328,0,1,1-3.328-3.328A3.332,3.332,0,0,1,14.207,10.879Z" transform="translate(-6988.235 2253.901)" fill="#fff"/>
    <path id="Icon_awesome-dot-circle-6" data-name="Icon awesome-dot-circle" d="M10.879.563A10.316,10.316,0,1,0,21.2,10.879,10.316,10.316,0,0,0,10.879.563Zm3.328,10.316a3.328,3.328,0,1,1-3.328-3.328A3.332,3.332,0,0,1,14.207,10.879Z" transform="translate(-6499.235 1977.901)" fill="#fff"/>
  </g>
</svg>
