<svg xmlns="http://www.w3.org/2000/svg" width="379.847" height="364.179" viewBox="0 0 379.847 364.179">
  <g id="third" transform="translate(-316.633 -2231.5)">
    <g id="blob-haikei" transform="translate(565.373 2521.171)">
      <path id="Path_38" data-name="Path 38" d="M84.782-214.908c32.68,21.347,46.868,60.286,46.31,95.594-.478,35.37-15.782,67.172-35.39,99.913C76.093,13.4,52.1,47.145,14.241,63.3S-75.27,78.071-109.943,59.666C-144.616,41.2-162.231,5.64-188.614-27.289c-26.3-32.991-61.375-63.416-59.7-91.775,1.674-28.421,40.093-54.84,79.229-75.311s78.91-34.932,124.423-40.316C.85-240.012,52.1-236.255,84.782-214.908" transform="translate(0 0)" fill="#e4e4e4"/>
    </g>
    <g id="undraw_environment_iaus" transform="translate(322 2231.5)">
      <path id="Path_48" data-name="Path 48" d="M515.162,532.208s42.529-5.1,57.415-13.184,125.462-11.908,125.462,13.184-127.163,36.15-127.163,36.15L504.1,564.531Z" transform="translate(-378.643 -371.518)" fill="#fbbebe"/>
      <path id="Path_49" data-name="Path 49" d="M515.162,532.208s42.529-5.1,57.415-13.184,125.462-11.908,125.462,13.184-127.163,36.15-127.163,36.15L504.1,564.531Z" transform="translate(-378.643 -371.518)" opacity="0.1"/>
      <path id="Path_50" data-name="Path 50" d="M298.984,529.468l-8.519,25.943L157,557.112V518.836s51.114-12.333,91.682,14.035C248.682,532.87,296.551,526.917,298.984,529.468Z" transform="translate(-150.132 -370.812)" fill="#009473"/>
      <path id="Path_51" data-name="Path 51" d="M297.3,529.352,288.886,555.3,157,557V518.72s50.509-12.333,90.6,14.035C247.6,532.755,294.9,526.8,297.3,529.352Z" transform="translate(-148.451 -370.696)" opacity="0.1"/>
      <path id="Path_52" data-name="Path 52" d="M815.217,464.775c0,1.449-3.25,2.526-3.57,3.924s1.614,3.5,1,4.82a26.231,26.231,0,0,1-2.231,3.879c-.8,1.146-3.274.979-4.288,2.054a34.094,34.094,0,0,1-3.149,2.738c-1.076.895-2.534,1.083-3.757,1.906-1.163.783-1.023,3.656-2.309,4.37-1.23.682-3.112.133-4.446.746-1.28.588-1.956,2.715-3.324,3.235-1.32.5-2.954.286-4.35.72-1.351.42-2.862.352-4.277.706-1.374.344-2.424,2.4-3.854,2.682-1.393.271-3.026-.451-4.466-.246-1.407.2-3.043-1.58-4.49-1.445-1.416.132-2.751.956-4.2,1.023-1.422.065-2.828.692-4.279.692s-2.948,1.361-4.37,1.3c-1.45-.067-2.764-2.129-4.18-2.261-1.447-.135-3.173,2.02-4.58,1.82-1.44-.2-2.581-2.314-3.974-2.585-1.43-.278-3.277,1.23-4.652.886-1.416-.354-2.256-2.808-3.607-3.228-1.4-.434-3.125.154-4.445-.348-1.369-.52-3.037-.437-4.317-1.025-1.334-.613-2.291-2.062-3.521-2.744-1.287-.713-1.88-2.482-3.044-3.266-1.224-.824-3.088-.719-4.164-1.614-1.136-.945-3.265-.994-4.223-2.011-1.014-1.075-1.424-2.88-2.225-4.027-.843-1.207.812-3.76.223-5.036-.611-1.324-3.165-1.862-3.482-3.249a20.4,20.4,0,0,1-.5-4.412c0-1.449,2.184-2.557,2.5-3.956s-1.291-3.379-.68-4.7c.589-1.276.514-3.238,1.357-4.446.8-1.146,2.8-1.6,3.813-2.671.959-1.016,2.675-1.3,3.811-2.245,1.076-.895.939-3.593,2.162-4.417,1.163-.783,2.788-1.141,4.074-1.854,1.23-.682,2.97-.567,4.3-1.179,1.28-.588,3.286.571,4.655.051,1.32-.5,2.391-1.6,3.786-2.032,1.351-.42,1.985-3.627,3.4-3.981,1.374-.344,3.066.227,4.5-.051,1.393-.271,3.268,2.259,4.708,2.054,1.407-.2,2.459-3.578,3.906-3.712,1.416-.132,3.013,1.617,4.464,1.551,1.422-.065,2.85.96,4.3.96s2.9-1.407,4.318-1.341c1.45.067,2.729,1.926,4.146,2.057,1.447.135,3.224-2.693,4.63-2.493,1.44.2,2.553,2.391,3.946,2.661,1.43.278,3.221-1.079,4.6-.735,1.416.354,2.267,2.677,3.618,3.1,1.4.434,2.255,2.073,3.575,2.575,1.369.52,3.912-1.914,5.193-1.325,1.334.613,2.486,1.673,3.716,2.354,1.287.713,3.333.355,4.5,1.138,1.224.824,1.524,3.035,2.6,3.93,1.136.945,3.01,1.229,3.969,2.246,1.014,1.075,1.155,3,1.955,4.148.843,1.207.817,2.88,1.405,4.156.611,1.324,2.242,2.326,2.558,3.712S815.217,463.326,815.217,464.775Z" transform="translate(-506.393 -319.609)" fill="#3f3d56"/>
      <path id="Path_53" data-name="Path 53" d="M580.883,565.484s48.058-24.667,79.1-15.311,74.426-6.8,79.53-1.276,12.333,65.07-48.909,68.472-113.553-10.207-113.553-10.207Z" transform="translate(-425.226 -393.736)" fill="#fbbebe"/>
      <path id="Path_54" data-name="Path 54" d="M263.526,564.437s15.113-1.2,14.435,5.6-1.355,59.541-5.42,60.817-36.247,1.276-49.459,1.276l-76.016-1.276h0c-1.95-3.679-25.279-20.925-32.408-39.55-13.951-36.45,8.761-53.278,8.761-53.278s77.982,8.62,104.405,25.207C227.824,563.236,259.592,562.661,263.526,564.437Z" transform="translate(-115.493 -395.317)" fill="#009473"/>
      <path id="Path_55" data-name="Path 55" d="M786.062,236.779a9.774,9.774,0,0,0-8.425,5.891c-2.107,5.092.606,11.074,4.678,14.788s9.3,5.836,14.055,8.626c6.384,3.747,12.12,8.949,15.314,15.627s3.534,14.949-.221,21.328c-3.485,5.921-9.821,9.465-15.864,12.733" transform="translate(-552.84 -195.189)" fill="none" stroke="#3f3d56" stroke-miterlimit="10" stroke-width="1"/>
      <path id="Path_56" data-name="Path 56" d="M833.127,150.885a9.774,9.774,0,0,0-8.425,5.891c-2.107,5.092.606,11.074,4.678,14.788s9.3,5.836,14.055,8.626c6.383,3.747,12.12,8.949,15.313,15.627s3.534,14.949-.221,21.328c-3.485,5.921-9.821,9.465-15.864,12.733" transform="translate(-582.893 -140.342)" fill="none" stroke="#3f3d56" stroke-miterlimit="10" stroke-width="1"/>
      <path id="Path_57" data-name="Path 57" d="M931.942,167.6a9.774,9.774,0,0,0-10.268-.5c-4.783,2.737-6.3,9.127-5.354,14.557s3.783,10.31,5.833,15.425c2.753,6.871,4.1,14.5,2.542,21.731s-6.357,13.984-13.231,16.73c-6.38,2.549-13.56,1.472-20.339.357" transform="translate(-625.775 -149.917)" fill="none" stroke="#3f3d56" stroke-miterlimit="10" stroke-width="1"/>
      <ellipse id="Ellipse_10" data-name="Ellipse 10" cx="10.207" cy="4.958" rx="10.207" ry="4.958" transform="translate(246.67 71.949)" fill="#57b894"/>
      <ellipse id="Ellipse_11" data-name="Ellipse 11" cx="10.207" cy="4.958" rx="10.207" ry="4.958" transform="translate(245.394 71.099)" fill="none" stroke="#3f3d56" stroke-miterlimit="10" stroke-width="1"/>
      <ellipse id="Ellipse_12" data-name="Ellipse 12" cx="10.207" cy="4.958" rx="10.207" ry="4.958" transform="translate(268.785 67.696)" fill="#57b894"/>
      <ellipse id="Ellipse_13" data-name="Ellipse 13" cx="10.207" cy="4.958" rx="10.207" ry="4.958" transform="translate(267.509 66.846)" fill="none" stroke="#3f3d56" stroke-miterlimit="10" stroke-width="1"/>
      <ellipse id="Ellipse_14" data-name="Ellipse 14" cx="10.207" cy="4.958" rx="10.207" ry="4.958" transform="translate(272.188 86.409)" fill="#57b894"/>
      <ellipse id="Ellipse_15" data-name="Ellipse 15" cx="10.207" cy="4.958" rx="10.207" ry="4.958" transform="translate(270.912 85.559)" fill="none" stroke="#3f3d56" stroke-miterlimit="10" stroke-width="1"/>
      <ellipse id="Ellipse_16" data-name="Ellipse 16" cx="10.207" cy="4.958" rx="10.207" ry="4.958" transform="translate(270.061 39.627)" fill="#57b894"/>
      <ellipse id="Ellipse_17" data-name="Ellipse 17" cx="10.207" cy="4.958" rx="10.207" ry="4.958" transform="translate(268.785 38.777)" fill="none" stroke="#3f3d56" stroke-miterlimit="10" stroke-width="1"/>
      <ellipse id="Ellipse_18" data-name="Ellipse 18" cx="10.207" cy="4.958" rx="10.207" ry="4.958" transform="translate(244.544 36.65)" fill="#57b894"/>
      <ellipse id="Ellipse_19" data-name="Ellipse 19" cx="10.207" cy="4.958" rx="10.207" ry="4.958" transform="translate(243.268 35.799)" fill="none" stroke="#3f3d56" stroke-miterlimit="10" stroke-width="1"/>
      <ellipse id="Ellipse_20" data-name="Ellipse 20" cx="10.207" cy="4.958" rx="10.207" ry="4.958" transform="translate(256.026 26.018)" fill="#57b894"/>
      <ellipse id="Ellipse_21" data-name="Ellipse 21" cx="10.207" cy="4.958" rx="10.207" ry="4.958" transform="translate(254.751 25.167)" fill="none" stroke="#3f3d56" stroke-miterlimit="10" stroke-width="1"/>
      <ellipse id="Ellipse_22" data-name="Ellipse 22" cx="10.207" cy="4.958" rx="10.207" ry="4.958" transform="translate(281.119 28.144)" fill="#57b894"/>
      <ellipse id="Ellipse_23" data-name="Ellipse 23" cx="10.207" cy="4.958" rx="10.207" ry="4.958" transform="translate(279.843 27.293)" fill="none" stroke="#3f3d56" stroke-miterlimit="10" stroke-width="1"/>
      <ellipse id="Ellipse_24" data-name="Ellipse 24" cx="10.207" cy="4.958" rx="10.207" ry="4.958" transform="translate(299.832 42.179)" fill="#57b894"/>
      <ellipse id="Ellipse_25" data-name="Ellipse 25" cx="10.207" cy="4.958" rx="10.207" ry="4.958" transform="translate(298.556 41.328)" fill="none" stroke="#3f3d56" stroke-miterlimit="10" stroke-width="1"/>
      <ellipse id="Ellipse_26" data-name="Ellipse 26" cx="10.207" cy="4.958" rx="10.207" ry="4.958" transform="translate(233.911 17.512)" fill="#57b894"/>
      <ellipse id="Ellipse_27" data-name="Ellipse 27" cx="10.207" cy="4.958" rx="10.207" ry="4.958" transform="translate(232.636 16.661)" fill="none" stroke="#3f3d56" stroke-miterlimit="10" stroke-width="1"/>
      <ellipse id="Ellipse_28" data-name="Ellipse 28" cx="10.207" cy="4.958" rx="10.207" ry="4.958" transform="translate(240.291 1.351)" fill="#57b894"/>
      <ellipse id="Ellipse_29" data-name="Ellipse 29" cx="10.207" cy="4.958" rx="10.207" ry="4.958" transform="translate(239.015 0.5)" fill="none" stroke="#3f3d56" stroke-miterlimit="10" stroke-width="1"/>
      <ellipse id="Ellipse_30" data-name="Ellipse 30" cx="10.207" cy="4.958" rx="10.207" ry="4.958" transform="translate(299.406 13.259)" fill="#57b894"/>
      <ellipse id="Ellipse_31" data-name="Ellipse 31" cx="10.207" cy="4.958" rx="10.207" ry="4.958" transform="translate(298.131 12.408)" fill="none" stroke="#3f3d56" stroke-miterlimit="10" stroke-width="1"/>
      <ellipse id="Ellipse_32" data-name="Ellipse 32" cx="10.207" cy="4.958" rx="10.207" ry="4.958" transform="translate(205.417 52.386)" fill="#57b894"/>
      <ellipse id="Ellipse_33" data-name="Ellipse 33" cx="10.207" cy="4.958" rx="10.207" ry="4.958" transform="translate(204.141 51.535)" fill="none" stroke="#3f3d56" stroke-miterlimit="10" stroke-width="1"/>
      <ellipse id="Ellipse_34" data-name="Ellipse 34" cx="10.207" cy="4.958" rx="10.207" ry="4.958" transform="translate(240.716 49.834)" fill="#57b894"/>
      <ellipse id="Ellipse_35" data-name="Ellipse 35" cx="10.207" cy="4.958" rx="10.207" ry="4.958" transform="translate(239.44 48.984)" fill="none" stroke="#3f3d56" stroke-miterlimit="10" stroke-width="1"/>
      <ellipse id="Ellipse_36" data-name="Ellipse 36" cx="10.207" cy="4.958" rx="10.207" ry="4.958" transform="translate(287.073 53.662)" fill="#57b894"/>
      <ellipse id="Ellipse_37" data-name="Ellipse 37" cx="10.207" cy="4.958" rx="10.207" ry="4.958" transform="translate(285.797 52.811)" fill="none" stroke="#3f3d56" stroke-miterlimit="10" stroke-width="1"/>
      <ellipse id="Ellipse_38" data-name="Ellipse 38" cx="10.207" cy="4.958" rx="10.207" ry="4.958" transform="translate(262.406 55.363)" fill="#57b894"/>
      <ellipse id="Ellipse_39" data-name="Ellipse 39" cx="10.207" cy="4.958" rx="10.207" ry="4.958" transform="translate(261.13 54.512)" fill="none" stroke="#3f3d56" stroke-miterlimit="10" stroke-width="1"/>
      <ellipse id="Ellipse_40" data-name="Ellipse 40" cx="10.207" cy="4.958" rx="10.207" ry="4.958" transform="translate(264.107 12.834)" fill="#57b894"/>
      <ellipse id="Ellipse_41" data-name="Ellipse 41" cx="10.207" cy="4.958" rx="10.207" ry="4.958" transform="translate(262.831 11.983)" fill="none" stroke="#3f3d56" stroke-miterlimit="10" stroke-width="1"/>
      <ellipse id="Ellipse_42" data-name="Ellipse 42" cx="10.207" cy="4.958" rx="10.207" ry="4.958" transform="translate(220.302 39.202)" fill="#57b894"/>
      <ellipse id="Ellipse_43" data-name="Ellipse 43" cx="10.207" cy="4.958" rx="10.207" ry="4.958" transform="translate(219.026 38.351)" fill="none" stroke="#3f3d56" stroke-miterlimit="10" stroke-width="1"/>
      <ellipse id="Ellipse_44" data-name="Ellipse 44" cx="10.207" cy="4.958" rx="10.207" ry="4.958" transform="translate(226.256 58.34)" fill="#57b894"/>
      <ellipse id="Ellipse_45" data-name="Ellipse 45" cx="10.207" cy="4.958" rx="10.207" ry="4.958" transform="translate(224.98 57.489)" fill="none" stroke="#3f3d56" stroke-miterlimit="10" stroke-width="1"/>
      <g id="Group_13" data-name="Group 13" transform="translate(229.377 90.221)" opacity="0.3">
        <ellipse id="Ellipse_46" data-name="Ellipse 46" cx="5.347" cy="2.316" rx="5.347" ry="2.316" transform="translate(0.673 9.336) rotate(-60.799)" fill="#57b894"/>
        <ellipse id="Ellipse_47" data-name="Ellipse 47" cx="5.347" cy="2.316" rx="5.347" ry="2.316" transform="translate(0 9.725) rotate(-60.799)" fill="none" stroke="#3f3d56" stroke-miterlimit="10" stroke-width="1"/>
      </g>
      <g id="Group_14" data-name="Group 14" transform="translate(280.156 99.908)" opacity="0.3">
        <ellipse id="Ellipse_48" data-name="Ellipse 48" cx="2.316" cy="5.347" rx="2.316" ry="5.347" transform="matrix(0.667, -0.745, 0.745, 0.667, 0.233, 4.193)" fill="#57b894"/>
        <ellipse id="Ellipse_49" data-name="Ellipse 49" cx="2.316" cy="5.347" rx="2.316" ry="5.347" transform="matrix(0.667, -0.745, 0.745, 0.667, 0, 3.451)" fill="none" stroke="#3f3d56" stroke-miterlimit="10" stroke-width="1"/>
      </g>
      <g id="Group_15" data-name="Group 15" transform="translate(232.523 73.114)" opacity="0.3">
        <ellipse id="Ellipse_50" data-name="Ellipse 50" cx="2.316" cy="5.347" rx="2.316" ry="5.347" transform="matrix(0.667, -0.745, 0.745, 0.667, 0.233, 4.193)" fill="#57b894"/>
        <ellipse id="Ellipse_51" data-name="Ellipse 51" cx="2.316" cy="5.347" rx="2.316" ry="5.347" transform="matrix(0.667, -0.745, 0.745, 0.667, 0, 3.451)" fill="none" stroke="#3f3d56" stroke-miterlimit="10" stroke-width="1"/>
      </g>
    </g>
  </g>
</svg>
