<svg xmlns="http://www.w3.org/2000/svg" width="493" height="344.321" viewBox="0 0 493 344.321">
  <g id="undraw_Art_re_vj2w" transform="translate(0 0.001)">
    <path id="Path_194" data-name="Path 194" d="M327.2,313.851a191.419,191.419,0,0,0-9.413-51.242s0,0,0,0q-1.787-5.446-3.918-10.8-.8-2.013-1.642-4.012A191.944,191.944,0,0,0,296.3,217.8q-3.292-5.08-6.914-9.945a194.841,194.841,0,0,0-18.578-21.489q-4.109-4.109-8.419-7.935c-.416-.373-.832-.742-1.252-1.1a191.829,191.829,0,0,0-33.616-23.564c-.171-.1-.339-.193-.51-.283q-3.671-2.019-7.433-3.867c-.257-.129-.51-.257-.767-.377q-3.221-1.575-6.507-3.022c-.347-.159-.7-.313-1.05-.463-.009,0-.013-.009-.021-.009q-.926-.405-1.852-.8l-.489-.206h0a191.87,191.87,0,0,0-70.061-14.922q-2.328-.058-4.668-.056H92.351a36.462,36.462,0,0,0-9.611,1.282l-.189.051A36.645,36.645,0,0,0,55.769,166.34V325.378a5.841,5.841,0,0,0,2.13,4.514c.009.009.017.013.021.017a5.828,5.828,0,0,0,3.712,1.329H319.186a8.236,8.236,0,0,0,8.226-8.226Q327.412,318.414,327.2,313.851Z" transform="translate(-42.562 -94.877)" fill="#f2f2f2"/>
    <path id="Path_195" data-name="Path 195" d="M231.837,378.524a93.027,93.027,0,0,1-9.562,41.217H61.92a5.649,5.649,0,0,1-5.649-5.649V333.9a93.45,93.45,0,0,1,175.565,44.628Z" transform="translate(-42.849 -183.592)" fill="#2f2e41"/>
    <path id="Path_196" data-name="Path 196" d="M327.066,411.036v48.117a8.013,8.013,0,0,1-8.013,8.013H61.146a5.608,5.608,0,0,1-5.608-5.606V461.5c0-40.078,124.655-74.263,160.1-87.537a93.56,93.56,0,0,1,111.43,37.07Z" transform="translate(-42.43 -231.018)" fill="#3f3d56"/>
    <circle id="Ellipse_83" data-name="Ellipse 83" cx="23.283" cy="23.283" r="23.283" transform="translate(215.449 109.411) rotate(-80.783)" fill="#ff6584"/>
    <path id="Path_197" data-name="Path 197" d="M145.567,144.428q0,4.848-.4,9.255c-3.472,38.335-28.969,52.018-59.9,52.018-.776,0-1.543-.009-2.31-.03-1.543-.03-3.074-.1-4.582-.21-13.884-.982-26.333-5.067-35.716-13.336a45.189,45.189,0,0,1-4.488-4.565c-8.265-9.683-13.207-23.7-13.207-43.132,0-31.58,29.149-69.13,46.917-89.085A17.871,17.871,0,0,1,84.8,49.338h.171A17.84,17.84,0,0,1,98.65,55.344a302.633,302.633,0,0,1,22.578,28.523C134.135,102.535,145.567,124.654,145.567,144.428Z" transform="translate(-24.959 -48.926)" fill="#009473"/>
    <path id="Path_198" data-name="Path 198" d="M103.247,150.379l22.059-30.821-22.115,34.2-.056,3.536-.493,30.328-.18,11.124H96.371l.42-8.033,1.762-33.629,2.379-45.434-.021-.356.043-.064.017-.364.206-3.927L79.01,72.658l22.235,31.065.051.909,1.8-34.327L85.131,36.77l-1.016-1.895,1.2,1.843,18.008,27.554.266-10.249.489-18.587.9-34.473h.171l-.189,34.473-.077,13.786,11.7-13.786,7.189-8.466-5.933,8.466-13.04,18.617-.5,30.739,17.639-29.5L104.241,89.316l-.279,17.091,25.6-41.062L105.84,108.755l-1.976,3.614Z" transform="translate(-45.141 -0.552)" fill="#3f3d56"/>
    <path id="Path_199" data-name="Path 199" d="M406.388,123.065q0,4.077-.356,7.763c-2.906,30.594-23.358,41.525-48.156,41.525-.622,0-1.243-.009-1.856-.021q-1.865-.039-3.686-.176a61.686,61.686,0,0,1-10.742-1.655c-8.762-2.178-16.358-6.391-21.973-13.186-6.421-7.772-10.249-18.917-10.249-34.25,0-11.385,4.711-23.735,11.2-35.343,7.082-12.676,16.281-24.464,23.769-33.148a17.8,17.8,0,0,1,13.13-6.194h.171a17.813,17.813,0,0,1,13.786,6.194C385.774,71.21,406.388,99.248,406.388,123.065Z" transform="translate(-187.453 -48.378)" fill="#009473"/>
    <path id="Path_200" data-name="Path 200" d="M367.466,118.388,385.208,93.6,367.423,121.11l-.047,2.846-.2,12.41-.133,8.385-.206,12.547h-4.9l.574-10.978.759-14.5.42-8.037L365.6,87.237l-.013-.283.03-.051.18-3.455L347.97,55.867l17.884,24.991.043.733,1.445-27.614-2.2-4.111h0L352.077,25.479,367.53,49.129,368.82,0h.172l-.206,37.015,15.2-17.9L368.726,40.907l-.171,10.434-.232,14.292,6.739-11.27,7.45-12.457L375.829,54.74l-7.566,14.532-.223,13.747,15.222-24.412,5.375-8.616-4.865,8.9L367.963,87.816Z" transform="translate(-198.808 -0.003)" fill="#3f3d56"/>
    <path id="Path_201" data-name="Path 201" d="M681.774,280.257c0,24.6-14.622,33.183-32.66,33.183q-.624,0-1.247-.013c-.836-.021-1.663-.056-2.482-.12a38.748,38.748,0,0,1-11.175-2.345c-10.541-4.051-17.751-13.43-17.751-30.705a29.658,29.658,0,0,1,.189-3.3,51.314,51.314,0,0,1,5.431-16.868,96.69,96.69,0,0,1,5.307-9.251c2.469-3.832,5.122-7.463,7.7-10.734a17.759,17.759,0,0,1,13.666-6.794c.06,0,.12,0,.184,0a17.759,17.759,0,0,1,14.214,6.794C672,251.348,681.774,266.8,681.774,280.257Z" transform="translate(-362.905 -154.036)" fill="#009473"/>
    <path id="Path_202" data-name="Path 202" d="M672.375,309.676l11.943-16.688L672.345,311.51l-.03,1.916-.339,20.606-.03,1.839h-3.3l.326-6.22.857-16.345,1.286-24.6-.013-.193.021-.034.124-2.323-12-18.57,12.037,16.825.03.493.973-18.591-10.275-19.187,10.4,15.929.78-29.745c.06,0,.12,0,.184,0l-.12,21.587,10.232-12.05-10.275,14.665-.27,16.649,9.555-15.976-9.594,18.424-.15,9.255,13.867-22.235-13.919,25.463Z" transform="translate(-387.353 -154.036)" fill="#3f3d56"/>
    <path id="Path_203" data-name="Path 203" d="M198.051,439.154c-1.445,2.306-3.321,2.251-5.011,1.191s-2.557-2.724-1.111-5.03S198.274,432,198.274,432,199.5,436.849,198.051,439.154Z" transform="translate(-119.937 -267.554)" fill="#009473"/>
    <path id="Path_204" data-name="Path 204" d="M93.09,453.834c-1.445,2.306-3.321,2.251-5.011,1.191S85.522,452.3,86.967,450s6.345-3.319,6.345-3.319S94.535,451.529,93.09,453.834Z" transform="translate(-59.968 -275.942)" fill="#009473"/>
    <path id="Path_205" data-name="Path 205" d="M464.711,429.775c.267,2.708-1.249,3.812-3.235,4.009s-3.689-.59-3.956-3.3,2.988-6.508,2.988-6.508S464.444,427.067,464.711,429.775Z" transform="translate(-272.088 -262.973)" fill="#009473"/>
    <path id="Path_206" data-name="Path 206" d="M344.115,349.608c-1.445,2.306-3.321,2.251-5.011,1.191s-2.557-2.724-1.111-5.03,6.345-3.32,6.345-3.32S345.56,347.3,344.115,349.608Z" transform="translate(-203.388 -216.393)" fill="#009473"/>
    <path id="Path_207" data-name="Path 207" d="M623.03,432.548c-1.445,2.306-3.321,2.251-5.011,1.191s-2.557-2.724-1.111-5.03,6.345-3.319,6.345-3.319S624.475,430.243,623.03,432.548Z" transform="translate(-362.743 -263.78)" fill="#009473"/>
    <path id="Path_208" data-name="Path 208" d="M879.013,340.365c0,75.521-34.289,135.1-76.516,136.743-55.067,2.145-127.037-52.762-76.516-136.743,38.93-64.714,34.258-136.743,76.516-136.743S879.013,264.844,879.013,340.365Z" transform="translate(-415.688 -137.076)" fill="#f2f2f2"/>
    <path id="Path_209" data-name="Path 209" d="M1052.918,443.268c-6.833,8.492-16.165,18.578-26.311,25.205a44.223,44.223,0,0,1-14.857,6.576c-26.316,5.5-38.768-8.23-42.8-27.524-.094-.45-.184-.9-.261-1.342q-.257-1.35-.433-2.683c-2.4-17.674,4.428-33.221,28.9-38.331,7.574-1.582,16.349-.39,25,2.109a141.638,141.638,0,0,1,25.441,10.545,16.726,16.726,0,0,1,8.6,11.115c.013.056.026.111.034.167A16.719,16.719,0,0,1,1052.918,443.268Z" transform="translate(-563.642 -251.818)" fill="#009473"/>
    <path id="Path_210" data-name="Path 210" d="M994.237,456.344l-15.325,2.941,15.865,5.491,3.361,1.162-3.352-.943-18.5-5.208-9.936,1.908,26.89,9.872-30.358-9.2L940.788,466.6l20.524,9.049-22.492-8.672-2.053.394-9.191,1.762v0L917.841,471l-3.7.712-1.47.283-.737-3.532,1.5-.231,3.073-.476,11.231-1.736,8.6-1.333,26.611-4.119.2-.051.043.017,2.512-.39,17.185-16.992-15.312,16.641-.519.141,20.1-3.112,6.61-5.538,11.625-9.743-11.458,11.437-3.253,3.249,3.489-.634,30.109-5.465c.013.056.026.111.034.167l-24.721,5.02,15.175,8.252-17.987-7.712Z" transform="translate(-531.719 -273.008)" fill="#3f3d56"/>
    <path id="Path_211" data-name="Path 211" d="M935.938,365.7a.061.061,0,0,0-.009-.03,4.516,4.516,0,0,0-.977-1.89,4.57,4.57,0,0,0-3.241-1.569c-.051,0-.1,0-.15,0a4.66,4.66,0,0,0-1.41.206,4.571,4.571,0,0,0-3.176,3.845l-.266,5.525-.8,16.756L925.8,390.7l-1.295,26.993a5.639,5.639,0,0,0-1.942,4.737,5.7,5.7,0,0,0,11.038,1.487c.013-.034.026-.073.039-.107v0a5.666,5.666,0,0,0,.154-3.112,6,6,0,0,0-.446-1.235,5.726,5.726,0,0,0-.433-.72l1.762-29.063,1.059-17.515.279-4.608.013-.2a4.469,4.469,0,0,0,.034-.716.117.117,0,0,0,0-.039A4.589,4.589,0,0,0,935.938,365.7Z" transform="translate(-537.783 -227.678)" fill="#ffb6b6"/>
    <path id="Path_212" data-name="Path 212" d="M927.527,368.488a8.2,8.2,0,0,0-.189-1.751c-.034-.183-.081-.367-.133-.547a8.733,8.733,0,0,0-9.971-6.228c-5.5,1-8.775,2.833-9.748,5.453-.686,1.848-.334,4.321.54,6.936v0a40.849,40.849,0,0,0,2.864,6.374c.21.381.42.759.63,1.127a77.541,77.541,0,0,0,4.612,7.124l.051.073.913.12,1.153.15,7.617.99.48.064.026-.21A142.879,142.879,0,0,0,927.527,368.488Z" transform="translate(-528.974 -226.317)" fill="#ff6584"/>
    <ellipse id="Ellipse_84" data-name="Ellipse 84" cx="68.157" cy="7.287" rx="68.157" ry="7.287" transform="translate(297.006 329.745)" fill="#3f3d56"/>
    <path id="Path_213" data-name="Path 213" d="M826.179,724.4h-7.232l-3.44-27.894h10.674Z" transform="translate(-465.93 -397.939)" fill="#ffb6b6"/>
    <path id="Path_214" data-name="Path 214" d="M840.84,815.688l-.677-8.106-.57-6.859-2.452-.146-7.746-.463-1.235-.073v4.9l-4.192,2.893-2.212,1.53-4.467,3.082a3.06,3.06,0,0,0,1.74,5.577h13.61l1.916-3.956.429-.892.2,1.072v0l.716,3.772h5.131Z" transform="translate(-476.892 -477.833)" fill="#2f2e41"/>
    <path id="Path_215" data-name="Path 215" d="M891.472,713.45l-6.763,2.563-13.1-24.865,9.981-3.783Z" transform="translate(-497.981 -392.719)" fill="#ffb6b6"/>
    <path id="Path_216" data-name="Path 216" d="M929.164,801.112l-6.841-14.33-2.341.733-7.407,2.315-1.183.369,1.736,4.578-7.5,10.871a3.059,3.059,0,0,0,1.389,4.582,2.992,2.992,0,0,0,2,.081h.013a1.5,1.5,0,0,0,.2-.064l12.727-4.822.416-4.711.06-.652.416.677,2.16,3.528,4.8-1.818Z" transform="translate(-527.807 -470.257)" fill="#2f2e41"/>
    <path id="Path_217" data-name="Path 217" d="M966.711,682.775c.267,2.708-1.249,3.812-3.235,4.009s-3.689-.59-3.956-3.3,2.988-6.508,2.988-6.508S966.444,680.067,966.711,682.775Z" transform="translate(-558.9 -407.521)" fill="#009473"/>
    <path id="Path_218" data-name="Path 218" d="M933.091,601.834c-1.445,2.306-3.321,2.251-5.011,1.191s-2.557-2.724-1.111-5.03,6.345-3.319,6.345-3.319S934.536,599.529,933.091,601.834Z" transform="translate(-539.892 -360.5)" fill="#009473"/>
    <path id="Path_219" data-name="Path 219" d="M885.073,638.427s31.66,49.846,28.155,52.081-31.9,11-34.439,9.244-4.592-59.09-4.592-59.09Z" transform="translate(-510.161 -385.496)" fill="#2f2e41"/>
    <path id="Path_220" data-name="Path 220" d="M837.435,458.881c4.652.181,23.774,2.951,23.351,3.676a15.281,15.281,0,0,1-1.39,1.813s.967,4.411.544,4.833,8.277,10.392,3.2,31.78-4.531,36.191-4.531,36.191,2.054,62.715-3.806,63.983-28.941.423-30.028-2.054,3.323-79.39,3.323-79.39.483-38.668,1.631-43.381S834.559,458.817,837.435,458.881Z" transform="translate(-481.826 -282.914)" fill="#2f2e41"/>
    <circle id="Ellipse_85" data-name="Ellipse 85" cx="14.561" cy="14.561" r="14.561" transform="translate(363.523 93.878)" fill="#ffb6b6"/>
    <path id="Path_221" data-name="Path 221" d="M889.549,346.382c2.054,2.054,10.936,10.513,1.269,25.5s-15.83,25.859-15.83,25.859l-24.047-2.84,3.686-14.621s-1.813-11.54,4.35-17.28,12.93-15.165,12.93-15.165l3.49-.637S887.495,344.328,889.549,346.382Z" transform="translate(-496.874 -218.216)" fill="#ff6584"/>
    <path id="Path_222" data-name="Path 222" d="M875.2,369.863s-33.955,26.161-36.131,16.978c-1.414-5.969.236-28.4,1.171-37.96l6.865.077s-1.45,21.086,1.45,23.5c0,0,10.507-10.145,12.685-10S875.2,369.863,875.2,369.863Z" transform="translate(-489.779 -220.068)" fill="#ffb6b6"/>
    <path id="Path_223" data-name="Path 223" d="M895.6,355.409s-4.611,21.4-18.205,24.909l-15.861-6.43s20.169-21.5,27.117-21.741S895.6,355.409,895.6,355.409Z" transform="translate(-502.928 -221.926)" fill="#ff6584"/>
    <circle id="Ellipse_86" data-name="Ellipse 86" cx="5.573" cy="5.573" r="5.573" transform="translate(348.751 121.098)" fill="#ffb6b6"/>
    <path id="Path_224" data-name="Path 224" d="M904.974,277.8a49,49,0,0,0-.917-10.749c-.829-3.5-2.529-6.88-5.284-8.953s-6.667-2.573-9.5-.626a8.941,8.941,0,0,0-8.991-3.024,13.619,13.619,0,0,0-7.949,5.92,28.505,28.505,0,0,0-3.841,9.709c-.274,1.221-.389,2.78.594,3.465a2.836,2.836,0,0,0,2.648-.14l7.1-2.852c2.394,3.273,5.842,6.258,5.367,10.385s-3.234,8.47-4.693,12.326l6.105-2.2c.652-1.088,2.267-2.8,2.152-4.063a10.279,10.279,0,0,1,.9,2.972c0,.008,0,.017,0,.025l11.326-4.088a7.94,7.94,0,0,0,3.694-2.173C904.957,282.158,905,279.876,904.974,277.8Z" transform="translate(-506.791 -165.983)" fill="#2f2e41"/>
  </g>
</svg>
