<svg xmlns="http://www.w3.org/2000/svg" width="34.95" height="27.958" viewBox="0 0 34.95 27.958">
  <path id="Icon_awesome-people-carry" data-name="Icon awesome-people-carry" d="M6.989,5.242A2.621,2.621,0,1,0,4.368,2.621,2.622,2.622,0,0,0,6.989,5.242Zm20.969,0a2.621,2.621,0,1,0-2.621-2.621A2.622,2.622,0,0,0,27.958,5.242Zm6.864,20.319-2.4-6.007-2.244,2.534-.109.994,1.513,3.779a1.746,1.746,0,0,0,1.622,1.1,1.7,1.7,0,0,0,.65-.126A1.747,1.747,0,0,0,34.822,25.561ZM32.955,14.1l-1.01-4.379A3.539,3.539,0,0,0,29.9,7.274a3.369,3.369,0,0,0-3.063.18A5.983,5.983,0,0,0,24.207,10.7l-.617,1.851-.874.557V7.863a.876.876,0,0,0-.874-.874H13.105a.876.876,0,0,0-.874.874v5.242l-.879-.557L10.735,10.7A5.94,5.94,0,0,0,8.109,7.454a3.37,3.37,0,0,0-3.063-.18A3.539,3.539,0,0,0,3,9.725l-1,4.379a3.5,3.5,0,0,0,.786,3.1l3.67,4.145L7,26.4a1.749,1.749,0,0,0,1.736,1.556c.066,0,.126-.005.191-.011a1.745,1.745,0,0,0,1.545-1.928l-.552-5.067a3.49,3.49,0,0,0-.852-1.911L6.705,16.365l.961-3.839.371,1.114a3.532,3.532,0,0,0,1.338,1.78l2.79,1.775a2.325,2.325,0,0,0,.939.273h8.737a2.325,2.325,0,0,0,.939-.273l2.79-1.775a3.509,3.509,0,0,0,1.338-1.78l.371-1.114.961,3.839-2.364,2.676a3.49,3.49,0,0,0-.852,1.911l-.552,5.067a1.748,1.748,0,0,0,1.545,1.928c.066.005.126.011.191.011A1.748,1.748,0,0,0,27.947,26.4l.552-5.057,3.67-4.145a3.515,3.515,0,0,0,.786-3.1ZM2.528,19.554l-2.4,6.007a1.747,1.747,0,1,0,3.244,1.3l1.513-3.779-.109-.994L2.528,19.554Z" transform="translate(0.001)" fill="#fff"/>
</svg>
