<svg xmlns="http://www.w3.org/2000/svg" width="39.768" height="29.755" viewBox="0 0 39.768 29.755">
  <path id="Icon_ionic-ios-leaf" data-name="Icon ionic-ios-leaf" d="M42.178,28.886c-4.952-.62-5.325-.907-5.325-.907,1.491-5.734-2.141-11.709-7.294-15.157C22.695,8.235,12.265,11.567,4.139,4.593c-1.893-1.627-.793,18.249,9.378,25.781,7.437,5.5,16.194,3.812,18.594,2.914a10.129,10.129,0,0,0,3.7-2.627,33.828,33.828,0,0,0,5.927,1.1C43.134,31.9,43.841,29.1,42.178,28.886Zm-8.776.573c-7.428-1.805-13.89-6.277-18.077-9.779-.344-.287.153-.713.526-.465a62.807,62.807,0,0,0,18.479,8.361A2.628,2.628,0,0,1,33.4,29.459Z" transform="translate(-3.376 -4.499)" fill="#d2deff"/>
</svg>
